<svg width="290" height="257" viewBox="0 0 290 257" fill="none" xmlns="http://www.w3.org/2000/svg">
<rect width="290" height="257" rx="15" fill="white"/>
<rect x="115" y="7" width="59" height="24" rx="4" fill="#1450A3"/>
<path d="M131.046 19.5C131.046 20.3437 130.894 21.0729 130.589 21.6875C130.284 22.3021 129.866 22.776 129.335 23.1094C128.804 23.4427 128.197 23.6094 127.515 23.6094C126.832 23.6094 126.226 23.4427 125.694 23.1094C125.163 22.776 124.745 22.3021 124.44 21.6875C124.136 21.0729 123.983 20.3437 123.983 19.5C123.983 18.6562 124.136 17.9271 124.44 17.3125C124.745 16.6979 125.163 16.224 125.694 15.8906C126.226 15.5573 126.832 15.3906 127.515 15.3906C128.197 15.3906 128.804 15.5573 129.335 15.8906C129.866 16.224 130.284 16.6979 130.589 17.3125C130.894 17.9271 131.046 18.6562 131.046 19.5ZM130.108 19.5C130.108 18.8073 129.993 18.2227 129.761 17.7461C129.532 17.2695 129.22 16.9089 128.827 16.6641C128.437 16.4193 127.999 16.2969 127.515 16.2969C127.03 16.2969 126.591 16.4193 126.198 16.6641C125.808 16.9089 125.496 17.2695 125.265 17.7461C125.035 18.2227 124.921 18.8073 124.921 19.5C124.921 20.1927 125.035 20.7773 125.265 21.2539C125.496 21.7305 125.808 22.0911 126.198 22.3359C126.591 22.5807 127.03 22.7031 127.515 22.7031C127.999 22.7031 128.437 22.5807 128.827 22.3359C129.22 22.0911 129.532 21.7305 129.761 21.2539C129.993 20.7773 130.108 20.1927 130.108 19.5ZM134.987 23.625C134.425 23.625 133.94 23.4922 133.534 23.2266C133.128 22.9609 132.815 22.5951 132.597 22.1289C132.378 21.6628 132.269 21.1302 132.269 20.5312C132.269 19.9219 132.381 19.3841 132.604 18.918C132.831 18.4492 133.146 18.0833 133.55 17.8203C133.956 17.5547 134.43 17.4219 134.972 17.4219C135.394 17.4219 135.774 17.5 136.112 17.6562C136.451 17.8125 136.728 18.0312 136.944 18.3125C137.16 18.5937 137.295 18.9219 137.347 19.2969H136.425C136.354 19.0234 136.198 18.7812 135.956 18.5703C135.716 18.3568 135.394 18.25 134.987 18.25C134.628 18.25 134.313 18.3437 134.042 18.5312C133.774 18.7161 133.564 18.9779 133.413 19.3164C133.265 19.6523 133.19 20.0469 133.19 20.5C133.19 20.9635 133.263 21.3672 133.409 21.7109C133.558 22.0547 133.766 22.3216 134.034 22.5117C134.305 22.7018 134.623 22.7969 134.987 22.7969C135.227 22.7969 135.444 22.7552 135.64 22.6719C135.835 22.5885 136 22.4688 136.136 22.3125C136.271 22.1562 136.368 21.9687 136.425 21.75H137.347C137.295 22.1042 137.166 22.4232 136.96 22.707C136.757 22.9883 136.487 23.2122 136.151 23.3789C135.818 23.543 135.43 23.625 134.987 23.625ZM141.304 17.5V18.2812H138.194V17.5H141.304ZM139.101 16.0625H140.022V21.7812C140.022 22.0417 140.06 22.237 140.136 22.3672C140.214 22.4948 140.313 22.5807 140.433 22.625C140.555 22.6667 140.684 22.6875 140.819 22.6875C140.921 22.6875 141.004 22.6823 141.069 22.6719C141.134 22.6589 141.187 22.6484 141.226 22.6406L141.413 23.4687C141.351 23.4922 141.263 23.5156 141.151 23.5391C141.039 23.5651 140.897 23.5781 140.726 23.5781C140.465 23.5781 140.21 23.5221 139.96 23.4102C139.713 23.2982 139.507 23.1276 139.343 22.8984C139.181 22.6693 139.101 22.3802 139.101 22.0312V16.0625ZM145.063 23.625C144.522 23.625 144.047 23.4961 143.638 23.2383C143.231 22.9805 142.914 22.6198 142.685 22.1562C142.458 21.6927 142.345 21.151 142.345 20.5312C142.345 19.9062 142.458 19.3607 142.685 18.8945C142.914 18.4284 143.231 18.0664 143.638 17.8086C144.047 17.5508 144.522 17.4219 145.063 17.4219C145.605 17.4219 146.079 17.5508 146.485 17.8086C146.894 18.0664 147.212 18.4284 147.438 18.8945C147.668 19.3607 147.782 19.9062 147.782 20.5312C147.782 21.151 147.668 21.6927 147.438 22.1562C147.212 22.6198 146.894 22.9805 146.485 23.2383C146.079 23.4961 145.605 23.625 145.063 23.625ZM145.063 22.7969C145.475 22.7969 145.813 22.6914 146.079 22.4805C146.345 22.2695 146.541 21.9922 146.669 21.6484C146.797 21.3047 146.86 20.9323 146.86 20.5312C146.86 20.1302 146.797 19.7565 146.669 19.4102C146.541 19.0638 146.345 18.7839 146.079 18.5703C145.813 18.3568 145.475 18.25 145.063 18.25C144.652 18.25 144.313 18.3568 144.048 18.5703C143.782 18.7839 143.586 19.0638 143.458 19.4102C143.33 19.7565 143.267 20.1302 143.267 20.5312C143.267 20.9323 143.33 21.3047 143.458 21.6484C143.586 21.9922 143.782 22.2695 144.048 22.4805C144.313 22.6914 144.652 22.7969 145.063 22.7969ZM149.314 23.5V15.5H150.236V18.4531H150.314C150.382 18.349 150.476 18.2161 150.596 18.0547C150.718 17.8906 150.893 17.7448 151.119 17.6172C151.348 17.487 151.658 17.4219 152.049 17.4219C152.554 17.4219 152.999 17.5482 153.385 17.8008C153.77 18.0534 154.071 18.4115 154.287 18.875C154.503 19.3385 154.611 19.8854 154.611 20.5156C154.611 21.151 154.503 21.7018 154.287 22.168C154.071 22.6315 153.771 22.9909 153.389 23.2461C153.006 23.4987 152.564 23.625 152.064 23.625C151.679 23.625 151.37 23.5612 151.139 23.4336C150.907 23.3034 150.729 23.1562 150.604 22.9922C150.479 22.8255 150.382 22.6875 150.314 22.5781H150.205V23.5H149.314ZM150.221 20.5C150.221 20.9531 150.287 21.3529 150.42 21.6992C150.553 22.043 150.747 22.3125 151.002 22.5078C151.257 22.7005 151.57 22.7969 151.939 22.7969C152.325 22.7969 152.646 22.6953 152.904 22.4922C153.165 22.2865 153.36 22.0104 153.49 21.6641C153.623 21.3151 153.689 20.9271 153.689 20.5C153.689 20.0781 153.624 19.6979 153.494 19.3594C153.367 19.0182 153.173 18.7487 152.912 18.5508C152.654 18.3503 152.33 18.25 151.939 18.25C151.564 18.25 151.249 18.3451 150.994 18.5352C150.739 18.7227 150.546 18.9857 150.416 19.3242C150.286 19.6602 150.221 20.0521 150.221 20.5ZM158.537 23.625C157.959 23.625 157.46 23.4974 157.041 23.2422C156.624 22.9844 156.303 22.625 156.076 22.1641C155.852 21.7005 155.74 21.1615 155.74 20.5469C155.74 19.9323 155.852 19.3906 156.076 18.9219C156.303 18.4505 156.618 18.0833 157.021 17.8203C157.428 17.5547 157.902 17.4219 158.443 17.4219C158.756 17.4219 159.064 17.474 159.369 17.5781C159.674 17.6823 159.951 17.8516 160.201 18.0859C160.451 18.3177 160.65 18.625 160.799 19.0078C160.947 19.3906 161.021 19.862 161.021 20.4219V20.8125H156.396V20.0156H160.084C160.084 19.6771 160.016 19.375 159.881 19.1094C159.748 18.8437 159.558 18.6341 159.311 18.4805C159.066 18.3268 158.777 18.25 158.443 18.25C158.076 18.25 157.758 18.3411 157.49 18.5234C157.225 18.7031 157.02 18.9375 156.877 19.2266C156.734 19.5156 156.662 19.8255 156.662 20.1562V20.6875C156.662 21.1406 156.74 21.5247 156.896 21.8398C157.055 22.1523 157.275 22.3906 157.557 22.5547C157.838 22.7161 158.165 22.7969 158.537 22.7969C158.779 22.7969 158.998 22.763 159.193 22.6953C159.391 22.625 159.562 22.5208 159.705 22.3828C159.848 22.2422 159.959 22.0677 160.037 21.8594L160.928 22.1094C160.834 22.4115 160.676 22.6771 160.455 22.9062C160.234 23.1328 159.96 23.3099 159.635 23.4375C159.309 23.5625 158.943 23.625 158.537 23.625ZM162.424 23.5V17.5H163.314V18.4062H163.377C163.486 18.1094 163.684 17.8685 163.971 17.6836C164.257 17.4987 164.58 17.4062 164.939 17.4062C165.007 17.4062 165.092 17.4076 165.193 17.4102C165.295 17.4128 165.372 17.4167 165.424 17.4219V18.3594C165.393 18.3516 165.321 18.3398 165.209 18.3242C165.1 18.306 164.984 18.2969 164.861 18.2969C164.57 18.2969 164.309 18.3581 164.08 18.4805C163.854 18.6003 163.674 18.7669 163.541 18.9805C163.411 19.1914 163.346 19.4323 163.346 19.7031V23.5H162.424Z" fill="white"/>
<g clip-path="url(#clip0_314_77)">
<g clip-path="url(#clip1_314_77)">
<path d="M39.417 43.5V51.5H38.9287V44.0156H38.8818L37.085 45.207V44.6836L38.8662 43.5H39.417ZM44.3457 51.6094C43.8118 51.6094 43.3535 51.4453 42.9707 51.1172C42.5879 50.7891 42.2936 50.319 42.0879 49.707C41.8848 49.0924 41.7832 48.3568 41.7832 47.5C41.7832 46.6458 41.8861 45.9115 42.0918 45.2969C42.2975 44.6823 42.5905 44.2109 42.9707 43.8828C43.3535 43.5547 43.8118 43.3906 44.3457 43.3906C44.8796 43.3906 45.3366 43.5547 45.7168 43.8828C46.0996 44.2109 46.3939 44.6823 46.5996 45.2969C46.8053 45.9115 46.9082 46.6458 46.9082 47.5C46.9082 48.3568 46.8053 49.0924 46.5996 49.707C46.3965 50.319 46.1035 50.7891 45.7207 51.1172C45.3379 51.4453 44.8796 51.6094 44.3457 51.6094ZM44.3457 51.1562C44.9941 51.1562 45.5033 50.8346 45.873 50.1914C46.2428 49.5456 46.4277 48.6484 46.4277 47.5C46.4277 46.7344 46.3431 46.0781 46.1738 45.5313C46.0072 44.9844 45.7689 44.5664 45.459 44.2773C45.1491 43.9857 44.778 43.8398 44.3457 43.8398C43.6973 43.8398 43.1882 44.1628 42.8184 44.8086C42.4486 45.4544 42.2637 46.3516 42.2637 47.5C42.2637 48.2656 42.347 48.9219 42.5137 49.4687C42.6803 50.013 42.9186 50.431 43.2285 50.7227C43.541 51.0117 43.9134 51.1562 44.3457 51.1562Z" fill="white"/>
<path d="M64.0796 43.5H65.2358L67.9546 50.1406H68.0483L70.7671 43.5H71.9233V51.5H71.0171V45.4219H70.939L68.439 51.5H67.564L65.064 45.4219H64.9858V51.5H64.0796V43.5ZM76.1782 51.625C75.6366 51.625 75.1613 51.4961 74.7524 51.2383C74.3462 50.9805 74.0285 50.6198 73.7993 50.1562C73.5728 49.6927 73.4595 49.151 73.4595 48.5312C73.4595 47.9062 73.5728 47.3607 73.7993 46.8945C74.0285 46.4284 74.3462 46.0664 74.7524 45.8086C75.1613 45.5508 75.6366 45.4219 76.1782 45.4219C76.7199 45.4219 77.1938 45.5508 77.6001 45.8086C78.009 46.0664 78.3267 46.4284 78.5532 46.8945C78.7824 47.3607 78.897 47.9062 78.897 48.5312C78.897 49.151 78.7824 49.6927 78.5532 50.1562C78.3267 50.6198 78.009 50.9805 77.6001 51.2383C77.1938 51.4961 76.7199 51.625 76.1782 51.625ZM76.1782 50.7969C76.5897 50.7969 76.9282 50.6914 77.1938 50.4805C77.4595 50.2695 77.6561 49.9922 77.7837 49.6484C77.9113 49.3047 77.9751 48.9323 77.9751 48.5312C77.9751 48.1302 77.9113 47.7565 77.7837 47.4102C77.6561 47.0638 77.4595 46.7839 77.1938 46.5703C76.9282 46.3568 76.5897 46.25 76.1782 46.25C75.7668 46.25 75.4282 46.3568 75.1626 46.5703C74.897 46.7839 74.7004 47.0638 74.5728 47.4102C74.4451 47.7565 74.3813 48.1302 74.3813 48.5312C74.3813 48.9323 74.4451 49.3047 74.5728 49.6484C74.7004 49.9922 74.897 50.2695 75.1626 50.4805C75.4282 50.6914 75.7668 50.7969 76.1782 50.7969Z" fill="#B3B3B3"/>
<path d="M94.7861 44.3594V43.5H100.786V44.3594H98.2705V51.5H97.3018V44.3594H94.7861ZM105.121 49.0469V45.5H106.043V51.5H105.121V50.4844H105.059C104.918 50.7891 104.699 51.0482 104.402 51.2617C104.105 51.4727 103.73 51.5781 103.277 51.5781C102.902 51.5781 102.569 51.4961 102.277 51.332C101.986 51.1654 101.757 50.9154 101.59 50.582C101.423 50.2461 101.34 49.8229 101.34 49.3125V45.5H102.262V49.25C102.262 49.6875 102.384 50.0365 102.629 50.2969C102.876 50.5573 103.191 50.6875 103.574 50.6875C103.803 50.6875 104.036 50.6289 104.273 50.5117C104.513 50.3945 104.714 50.2148 104.875 49.9727C105.039 49.7305 105.121 49.4219 105.121 49.0469Z" fill="#B3B3B3"/>
<path d="M124.136 51.5L121.949 43.5H122.933L124.605 50.0156H124.683L126.386 43.5H127.48L129.183 50.0156H129.261L130.933 43.5H131.917L129.73 51.5H128.73L126.964 45.125H126.902L125.136 51.5H124.136ZM134.957 51.625C134.378 51.625 133.88 51.4974 133.46 51.2422C133.044 50.9844 132.722 50.625 132.496 50.1641C132.272 49.7005 132.16 49.1615 132.16 48.5469C132.16 47.9323 132.272 47.3906 132.496 46.9219C132.722 46.4505 133.037 46.0833 133.441 45.8203C133.847 45.5547 134.321 45.4219 134.863 45.4219C135.175 45.4219 135.484 45.474 135.789 45.5781C136.093 45.6823 136.371 45.8516 136.621 46.0859C136.871 46.3177 137.07 46.625 137.218 47.0078C137.367 47.3906 137.441 47.862 137.441 48.4219V48.8125H132.816V48.0156H136.503C136.503 47.6771 136.436 47.375 136.3 47.1094C136.167 46.8437 135.977 46.6341 135.73 46.4805C135.485 46.3268 135.196 46.25 134.863 46.25C134.496 46.25 134.178 46.3411 133.91 46.5234C133.644 46.7031 133.44 46.9375 133.296 47.2266C133.153 47.5156 133.082 47.8255 133.082 48.1562V48.6875C133.082 49.1406 133.16 49.5247 133.316 49.8398C133.475 50.1523 133.695 50.3906 133.976 50.5547C134.257 50.7161 134.584 50.7969 134.957 50.7969C135.199 50.7969 135.417 50.763 135.613 50.6953C135.811 50.625 135.981 50.5208 136.125 50.3828C136.268 50.2422 136.378 50.0677 136.457 49.8594L137.347 50.1094C137.253 50.4115 137.096 50.6771 136.875 50.9062C136.653 51.1328 136.38 51.3099 136.054 51.4375C135.729 51.5625 135.363 51.625 134.957 51.625Z" fill="#B3B3B3"/>
<path d="M152.896 44.3594V43.5H158.896V44.3594H156.38V51.5H155.412V44.3594H152.896ZM161.188 47.8906V51.5H160.266V43.5H161.188V46.4375H161.266C161.407 46.1276 161.618 45.8815 161.899 45.6992C162.183 45.5143 162.56 45.4219 163.032 45.4219C163.441 45.4219 163.799 45.5039 164.106 45.668C164.413 45.8294 164.652 46.0781 164.821 46.4141C164.993 46.7474 165.079 47.1719 165.079 47.6875V51.5H164.157V47.75C164.157 47.2734 164.033 46.9049 163.786 46.6445C163.541 46.3815 163.201 46.25 162.766 46.25C162.464 46.25 162.193 46.3138 161.954 46.4414C161.717 46.569 161.529 46.7552 161.391 47C161.256 47.2448 161.188 47.5417 161.188 47.8906Z" fill="#B3B3B3"/>
<path d="M184.155 51.5V43.5H188.952V44.3594H185.124V47.0625H188.593V47.9219H185.124V51.5H184.155ZM190.422 51.5V45.5H191.312V46.4062H191.375C191.484 46.1094 191.682 45.8685 191.969 45.6836C192.255 45.4987 192.578 45.4062 192.938 45.4062C193.005 45.4062 193.09 45.4076 193.191 45.4102C193.293 45.4128 193.37 45.4167 193.422 45.4219V46.3594C193.391 46.3516 193.319 46.3398 193.207 46.3242C193.098 46.306 192.982 46.2969 192.859 46.2969C192.568 46.2969 192.307 46.3581 192.078 46.4805C191.852 46.6003 191.672 46.7669 191.539 46.9805C191.409 47.1914 191.344 47.4323 191.344 47.7031V51.5H190.422Z" fill="#B3B3B3"/>
<path d="M216.452 45.5C216.405 45.1042 216.215 44.7969 215.881 44.5781C215.548 44.3594 215.139 44.25 214.655 44.25C214.301 44.25 213.991 44.3073 213.725 44.4219C213.462 44.5365 213.256 44.694 213.108 44.8945C212.962 45.0951 212.889 45.3229 212.889 45.5781C212.889 45.7917 212.94 45.9753 213.042 46.1289C213.146 46.2799 213.278 46.4062 213.44 46.5078C213.601 46.6068 213.771 46.6888 213.948 46.7539C214.125 46.8164 214.288 46.8672 214.436 46.9062L215.249 47.125C215.457 47.1797 215.689 47.2552 215.944 47.3516C216.202 47.4479 216.448 47.5794 216.682 47.7461C216.919 47.9102 217.114 48.1211 217.268 48.3789C217.422 48.6367 217.499 48.9531 217.499 49.3281C217.499 49.7604 217.385 50.151 217.159 50.5C216.935 50.849 216.607 51.1263 216.174 51.332C215.745 51.5378 215.222 51.6406 214.608 51.6406C214.035 51.6406 213.539 51.5482 213.12 51.3633C212.703 51.1784 212.375 50.9206 212.135 50.5898C211.898 50.2591 211.764 49.875 211.733 49.4375H212.733C212.759 49.7396 212.861 49.9896 213.038 50.1875C213.217 50.3828 213.444 50.5286 213.717 50.625C213.993 50.7187 214.29 50.7656 214.608 50.7656C214.978 50.7656 215.31 50.7057 215.604 50.5859C215.898 50.4635 216.131 50.2943 216.303 50.0781C216.475 49.8594 216.561 49.6042 216.561 49.3125C216.561 49.0469 216.487 48.8307 216.338 48.6641C216.19 48.4974 215.995 48.362 215.752 48.2578C215.51 48.1536 215.249 48.0625 214.967 47.9844L213.983 47.7031C213.358 47.5234 212.863 47.2669 212.499 46.9336C212.134 46.6003 211.952 46.1641 211.952 45.625C211.952 45.1771 212.073 44.7865 212.315 44.4531C212.56 44.1172 212.888 43.8568 213.299 43.6719C213.713 43.4844 214.176 43.3906 214.686 43.3906C215.202 43.3906 215.66 43.4831 216.061 43.668C216.462 43.8503 216.78 44.1003 217.014 44.418C217.251 44.7357 217.376 45.0964 217.389 45.5H216.452ZM220.732 51.6406C220.352 51.6406 220.007 51.569 219.697 51.4258C219.387 51.2799 219.141 51.0703 218.958 50.7969C218.776 50.5208 218.685 50.1875 218.685 49.7969C218.685 49.4531 218.753 49.1745 218.888 48.9609C219.024 48.7448 219.205 48.5755 219.431 48.4531C219.658 48.3307 219.908 48.2396 220.181 48.1797C220.457 48.1172 220.735 48.0677 221.013 48.0313C221.378 47.9844 221.673 47.9492 221.9 47.9258C222.129 47.8997 222.296 47.8568 222.4 47.7969C222.507 47.737 222.56 47.6328 222.56 47.4844V47.4531C222.56 47.0677 222.455 46.7682 222.244 46.5547C222.035 46.3411 221.719 46.2344 221.294 46.2344C220.854 46.2344 220.509 46.3307 220.259 46.5234C220.009 46.7161 219.833 46.9219 219.732 47.1406L218.857 46.8281C219.013 46.4635 219.222 46.1797 219.482 45.9766C219.745 45.7708 220.031 45.6276 220.341 45.5469C220.654 45.4635 220.961 45.4219 221.263 45.4219C221.456 45.4219 221.677 45.4453 221.927 45.4922C222.18 45.5365 222.423 45.6289 222.658 45.7695C222.895 45.9102 223.091 46.1224 223.248 46.4062C223.404 46.6901 223.482 47.0703 223.482 47.5469V51.5H222.56V50.6875H222.513C222.451 50.8177 222.347 50.957 222.201 51.1055C222.055 51.2539 221.861 51.3802 221.619 51.4844C221.376 51.5885 221.081 51.6406 220.732 51.6406ZM220.873 50.8125C221.237 50.8125 221.544 50.7409 221.794 50.5977C222.047 50.4544 222.237 50.2695 222.365 50.043C222.495 49.8164 222.56 49.5781 222.56 49.3281V48.4844C222.521 48.5312 222.435 48.5742 222.302 48.6133C222.172 48.6497 222.021 48.6823 221.849 48.7109C221.68 48.737 221.514 48.7604 221.353 48.7812C221.194 48.7995 221.065 48.8151 220.966 48.8281C220.727 48.8594 220.503 48.9102 220.294 48.9805C220.089 49.0482 219.922 49.151 219.794 49.2891C219.669 49.4245 219.607 49.6094 219.607 49.8437C219.607 50.1641 219.725 50.4062 219.962 50.5703C220.202 50.7318 220.505 50.8125 220.873 50.8125Z" fill="#17A1FA"/>
<path d="M245.641 45.5C245.594 45.1042 245.404 44.7969 245.07 44.5781C244.737 44.3594 244.328 44.25 243.844 44.25C243.49 44.25 243.18 44.3073 242.914 44.4219C242.651 44.5365 242.445 44.694 242.297 44.8945C242.151 45.0951 242.078 45.3229 242.078 45.5781C242.078 45.7917 242.129 45.9753 242.23 46.1289C242.335 46.2799 242.467 46.4062 242.629 46.5078C242.79 46.6068 242.96 46.6888 243.137 46.7539C243.314 46.8164 243.477 46.8672 243.625 46.9062L244.438 47.125C244.646 47.1797 244.878 47.2552 245.133 47.3516C245.391 47.4479 245.637 47.5794 245.871 47.7461C246.108 47.9102 246.303 48.1211 246.457 48.3789C246.611 48.6367 246.688 48.9531 246.688 49.3281C246.688 49.7604 246.574 50.151 246.348 50.5C246.124 50.849 245.796 51.1263 245.363 51.332C244.934 51.5378 244.411 51.6406 243.797 51.6406C243.224 51.6406 242.728 51.5482 242.309 51.3633C241.892 51.1784 241.564 50.9206 241.324 50.5898C241.087 50.2591 240.953 49.875 240.922 49.4375H241.922C241.948 49.7396 242.049 49.9896 242.227 50.1875C242.406 50.3828 242.633 50.5286 242.906 50.625C243.182 50.7187 243.479 50.7656 243.797 50.7656C244.167 50.7656 244.499 50.7057 244.793 50.5859C245.087 50.4635 245.32 50.2943 245.492 50.0781C245.664 49.8594 245.75 49.6042 245.75 49.3125C245.75 49.0469 245.676 48.8307 245.527 48.6641C245.379 48.4974 245.184 48.362 244.941 48.2578C244.699 48.1536 244.438 48.0625 244.156 47.9844L243.172 47.7031C242.547 47.5234 242.052 47.2669 241.687 46.9336C241.323 46.6003 241.141 46.1641 241.141 45.625C241.141 45.1771 241.262 44.7865 241.504 44.4531C241.749 44.1172 242.077 43.8568 242.488 43.6719C242.902 43.4844 243.365 43.3906 243.875 43.3906C244.391 43.3906 244.849 43.4831 245.25 43.668C245.651 43.8503 245.969 44.1003 246.203 44.418C246.44 44.7357 246.565 45.0964 246.578 45.5H245.641ZM251.937 49.0469V45.5H252.858V51.5H251.937V50.4844H251.874C251.733 50.7891 251.515 51.0482 251.218 51.2617C250.921 51.4727 250.546 51.5781 250.093 51.5781C249.718 51.5781 249.384 51.4961 249.093 51.332C248.801 51.1654 248.572 50.9154 248.405 50.582C248.239 50.2461 248.155 49.8229 248.155 49.3125V45.5H249.077V49.25C249.077 49.6875 249.2 50.0365 249.444 50.2969C249.692 50.5573 250.007 50.6875 250.39 50.6875C250.619 50.6875 250.852 50.6289 251.089 50.5117C251.328 50.3945 251.529 50.2148 251.69 49.9727C251.854 49.7305 251.937 49.4219 251.937 49.0469Z" fill="#17A1FA"/>
</g>
<g clip-path="url(#clip2_314_77)">
<path d="M36.1519 83.1666V82.4635L38.7925 79.5729C39.1024 79.2343 39.3576 78.9401 39.5581 78.6901C39.7586 78.4375 39.9071 78.2005 40.0034 77.9791C40.1024 77.7552 40.1519 77.5208 40.1519 77.276C40.1519 76.9948 40.0841 76.7513 39.9487 76.5455C39.8159 76.3398 39.6336 76.1809 39.4019 76.069C39.1701 75.957 38.9097 75.901 38.6206 75.901C38.3133 75.901 38.0451 75.9648 37.8159 76.0924C37.5894 76.2174 37.4136 76.3932 37.2886 76.6198C37.1662 76.8463 37.105 77.1119 37.105 77.4166H36.1831C36.1831 76.9479 36.2912 76.5364 36.5073 76.1823C36.7235 75.8281 37.0177 75.552 37.3901 75.3541C37.7651 75.1562 38.1857 75.0573 38.6519 75.0573C39.1206 75.0573 39.536 75.1562 39.8979 75.3541C40.2599 75.552 40.5438 75.819 40.7495 76.1549C40.9552 76.4908 41.0581 76.8645 41.0581 77.276C41.0581 77.5703 41.0047 77.858 40.8979 78.1393C40.7938 78.4179 40.6115 78.7291 40.3511 79.0729C40.0933 79.414 39.7352 79.8307 39.2769 80.3229L37.48 82.2448V82.3073H41.1987V83.1666H36.1519ZM45.312 83.276C44.8537 83.276 44.4409 83.1849 44.0737 83.0026C43.7065 82.8203 43.4123 82.5703 43.1909 82.2526C42.9696 81.9349 42.8485 81.5729 42.8276 81.1666H43.7651C43.8016 81.5286 43.9657 81.8281 44.2573 82.0651C44.5516 82.2994 44.9032 82.4166 45.312 82.4166C45.6401 82.4166 45.9318 82.3398 46.187 82.1862C46.4448 82.0325 46.6466 81.8216 46.7925 81.5533C46.9409 81.2825 47.0151 80.9765 47.0151 80.6354C47.0151 80.2864 46.9383 79.9752 46.7847 79.7018C46.6336 79.4257 46.4253 79.2083 46.1597 79.0494C45.894 78.8906 45.5907 78.8099 45.2495 78.8073C45.0047 78.8046 44.7534 78.8424 44.4956 78.9205C44.2378 78.9961 44.0256 79.0937 43.8589 79.2135L42.9526 79.1041L43.437 75.1666H47.5933V76.026H44.2495L43.9683 78.3854H44.0151C44.1792 78.2552 44.3849 78.1471 44.6323 78.0612C44.8797 77.9752 45.1375 77.9323 45.4058 77.9323C45.8953 77.9323 46.3315 78.0494 46.7144 78.2838C47.0998 78.5156 47.4019 78.8333 47.6206 79.2369C47.842 79.6406 47.9526 80.1015 47.9526 80.6198C47.9526 81.1302 47.8381 81.5859 47.6089 81.9869C47.3823 82.3854 47.0698 82.7005 46.6714 82.9323C46.2729 83.1614 45.8198 83.276 45.312 83.276Z" fill="#616161"/>
<path d="M70.2324 83.1666V82.4635L72.873 79.5729C73.1829 79.2343 73.4382 78.9401 73.6387 78.6901C73.8392 78.4375 73.9876 78.2005 74.084 77.9791C74.1829 77.7552 74.2324 77.5208 74.2324 77.276C74.2324 76.9948 74.1647 76.7513 74.0293 76.5455C73.8965 76.3398 73.7142 76.1809 73.4824 76.069C73.2507 75.957 72.9902 75.901 72.7012 75.901C72.3939 75.901 72.1257 75.9648 71.8965 76.0924C71.6699 76.2174 71.4941 76.3932 71.3691 76.6198C71.2467 76.8463 71.1855 77.1119 71.1855 77.4166H70.2637C70.2637 76.9479 70.3717 76.5364 70.5879 76.1823C70.804 75.8281 71.0983 75.552 71.4707 75.3541C71.8457 75.1562 72.2663 75.0573 72.7324 75.0573C73.2012 75.0573 73.6165 75.1562 73.9785 75.3541C74.3405 75.552 74.6243 75.819 74.8301 76.1549C75.0358 76.4908 75.1387 76.8645 75.1387 77.276C75.1387 77.5703 75.0853 77.858 74.9785 78.1393C74.8743 78.4179 74.6921 78.7291 74.4316 79.0729C74.1738 79.414 73.8158 79.8307 73.3574 80.3229L71.5605 82.2448V82.3073H75.2793V83.1666H70.2324ZM79.5488 83.276C79.2207 83.2708 78.8926 83.2083 78.5645 83.0885C78.2363 82.9687 77.9368 82.7669 77.666 82.483C77.3952 82.1966 77.1777 81.8099 77.0137 81.3229C76.8496 80.8333 76.7676 80.2187 76.7676 79.4791C76.7676 78.7708 76.834 78.1432 76.9668 77.5963C77.0996 77.0468 77.2923 76.5846 77.5449 76.2096C77.7975 75.832 78.1022 75.5455 78.459 75.3502C78.8184 75.1549 79.2233 75.0573 79.6738 75.0573C80.1217 75.0573 80.5202 75.1471 80.8691 75.3268C81.2207 75.5039 81.5072 75.7513 81.7285 76.069C81.9499 76.3867 82.0931 76.7526 82.1582 77.1666H81.2051C81.1165 76.8073 80.9447 76.5091 80.6895 76.2721C80.4342 76.0351 80.0957 75.9166 79.6738 75.9166C79.054 75.9166 78.5658 76.1862 78.209 76.7252C77.8548 77.2643 77.6764 78.0208 77.6738 78.9948H77.7363C77.8822 78.7734 78.0553 78.5846 78.2559 78.4283C78.459 78.2695 78.6829 78.1471 78.9277 78.0612C79.1725 77.9752 79.4316 77.9323 79.7051 77.9323C80.1634 77.9323 80.5827 78.0468 80.9629 78.276C81.3431 78.5026 81.6478 78.8164 81.877 79.2174C82.1061 79.6158 82.2207 80.0729 82.2207 80.5885C82.2207 81.0833 82.11 81.5364 81.8887 81.9479C81.6673 82.3567 81.3561 82.6823 80.9551 82.9244C80.5566 83.164 80.0879 83.2812 79.5488 83.276ZM79.5488 82.4166C79.877 82.4166 80.1712 82.3346 80.4316 82.1705C80.6947 82.0065 80.9017 81.7864 81.0527 81.5104C81.2064 81.2343 81.2832 80.927 81.2832 80.5885C81.2832 80.2578 81.209 79.957 81.0605 79.6862C80.9147 79.4127 80.7129 79.1953 80.4551 79.0338C80.1999 78.8724 79.9082 78.7916 79.5801 78.7916C79.3327 78.7916 79.1022 78.8411 78.8887 78.9401C78.6751 79.0364 78.4876 79.1692 78.3262 79.3385C78.1673 79.5078 78.0423 79.7018 77.9512 79.9205C77.86 80.1367 77.8145 80.3645 77.8145 80.6041C77.8145 80.9218 77.8887 81.2187 78.0371 81.4948C78.1882 81.7708 78.3939 81.9934 78.6543 82.1627C78.9173 82.332 79.2155 82.4166 79.5488 82.4166Z" fill="#616161"/>
<path d="M104.689 83.1666V82.4635L107.33 79.5729C107.64 79.2343 107.895 78.9401 108.096 78.6901C108.296 78.4375 108.445 78.2005 108.541 77.9791C108.64 77.7552 108.689 77.5208 108.689 77.276C108.689 76.9948 108.622 76.7513 108.486 76.5455C108.354 76.3398 108.171 76.1809 107.939 76.069C107.708 75.957 107.447 75.901 107.158 75.901C106.851 75.901 106.583 75.9648 106.354 76.0924C106.127 76.2174 105.951 76.3932 105.826 76.6198C105.704 76.8463 105.643 77.1119 105.643 77.4166H104.721C104.721 76.9479 104.829 76.5364 105.045 76.1823C105.261 75.8281 105.555 75.552 105.928 75.3541C106.303 75.1562 106.723 75.0573 107.189 75.0573C107.658 75.0573 108.074 75.1562 108.436 75.3541C108.798 75.552 109.081 75.819 109.287 76.1549C109.493 76.4908 109.596 76.8645 109.596 77.276C109.596 77.5703 109.542 77.858 109.436 78.1393C109.331 78.4179 109.149 78.7291 108.889 79.0729C108.631 79.414 108.273 79.8307 107.814 80.3229L106.018 82.2448V82.3073H109.736V83.1666H104.689ZM111.6 83.1666L115.178 76.0885V76.026H111.053V75.1666H116.178V76.0729L112.615 83.1666H111.6Z" fill="#616161"/>
<path d="M138.609 83.1666V82.4635L141.25 79.5729C141.559 79.2343 141.815 78.9401 142.015 78.6901C142.216 78.4375 142.364 78.2005 142.46 77.9791C142.559 77.7552 142.609 77.5208 142.609 77.276C142.609 76.9948 142.541 76.7513 142.406 76.5455C142.273 76.3398 142.091 76.1809 141.859 76.069C141.627 75.957 141.367 75.901 141.078 75.901C140.77 75.901 140.502 75.9648 140.273 76.0924C140.046 76.2174 139.871 76.3932 139.746 76.6198C139.623 76.8463 139.562 77.1119 139.562 77.4166H138.64C138.64 76.9479 138.748 76.5364 138.964 76.1823C139.181 75.8281 139.475 75.552 139.847 75.3541C140.222 75.1562 140.643 75.0573 141.109 75.0573C141.578 75.0573 141.993 75.1562 142.355 75.3541C142.717 75.552 143.001 75.819 143.207 76.1549C143.412 76.4908 143.515 76.8645 143.515 77.276C143.515 77.5703 143.462 77.858 143.355 78.1393C143.251 78.4179 143.069 78.7291 142.808 79.0729C142.55 79.414 142.192 79.8307 141.734 80.3229L139.937 82.2448V82.3073H143.656V83.1666H138.609ZM147.832 83.276C147.295 83.276 146.821 83.1809 146.41 82.9908C146.001 82.7981 145.682 82.5338 145.453 82.1979C145.223 81.8593 145.11 81.4739 145.113 81.0416C145.11 80.7031 145.177 80.3906 145.312 80.1041C145.447 79.8151 145.632 79.5742 145.867 79.3815C146.104 79.1862 146.368 79.0625 146.66 79.0104V78.9635C146.277 78.8645 145.972 78.6497 145.746 78.319C145.519 77.9856 145.407 77.6067 145.41 77.1823C145.407 76.776 145.51 76.4127 145.718 76.0924C145.927 75.7721 146.213 75.5195 146.578 75.3346C146.945 75.1497 147.363 75.0573 147.832 75.0573C148.295 75.0573 148.709 75.1497 149.074 75.3346C149.438 75.5195 149.725 75.7721 149.933 76.0924C150.144 76.4127 150.251 76.776 150.253 77.1823C150.251 77.6067 150.135 77.9856 149.906 78.319C149.679 78.6497 149.378 78.8645 149.003 78.9635V79.0104C149.292 79.0625 149.553 79.1862 149.785 79.3815C150.016 79.5742 150.201 79.8151 150.339 80.1041C150.477 80.3906 150.548 80.7031 150.55 81.0416C150.548 81.4739 150.431 81.8593 150.199 82.1979C149.97 82.5338 149.651 82.7981 149.242 82.9908C148.835 83.1809 148.365 83.276 147.832 83.276ZM147.832 82.4166C148.194 82.4166 148.506 82.358 148.769 82.2408C149.032 82.1237 149.235 81.9583 149.378 81.7448C149.522 81.5312 149.595 81.2812 149.597 80.9948C149.595 80.6927 149.516 80.4257 149.363 80.194C149.209 79.9622 149 79.7799 148.734 79.6471C148.471 79.5143 148.17 79.4479 147.832 79.4479C147.49 79.4479 147.186 79.5143 146.917 79.6471C146.652 79.7799 146.442 79.9622 146.289 80.194C146.138 80.4257 146.063 80.6927 146.066 80.9948C146.063 81.2812 146.132 81.5312 146.273 81.7448C146.416 81.9583 146.621 82.1237 146.886 82.2408C147.152 82.358 147.467 82.4166 147.832 82.4166ZM147.832 78.6198C148.118 78.6198 148.372 78.5625 148.593 78.4479C148.817 78.3333 148.993 78.1731 149.121 77.9674C149.248 77.7617 149.313 77.5208 149.316 77.2448C149.313 76.9739 149.25 76.7382 149.125 76.5377C149 76.3346 148.826 76.1783 148.605 76.069C148.384 75.957 148.126 75.901 147.832 75.901C147.532 75.901 147.27 75.957 147.046 76.069C146.822 76.1783 146.649 76.3346 146.527 76.5377C146.404 76.7382 146.345 76.9739 146.347 77.2448C146.345 77.5208 146.406 77.7617 146.531 77.9674C146.658 78.1731 146.834 78.3333 147.058 78.4479C147.282 78.5625 147.54 78.6198 147.832 78.6198Z" fill="#616161"/>
<path d="M172.732 83.1666V82.4635L175.373 79.5729C175.683 79.2343 175.938 78.9401 176.139 78.6901C176.339 78.4375 176.488 78.2005 176.584 77.9791C176.683 77.7552 176.732 77.5208 176.732 77.276C176.732 76.9948 176.665 76.7513 176.529 76.5455C176.396 76.3398 176.214 76.1809 175.982 76.069C175.751 75.957 175.49 75.901 175.201 75.901C174.894 75.901 174.626 75.9648 174.396 76.0924C174.17 76.2174 173.994 76.3932 173.869 76.6198C173.747 76.8463 173.686 77.1119 173.686 77.4166H172.764C172.764 76.9479 172.872 76.5364 173.088 76.1823C173.304 75.8281 173.598 75.552 173.971 75.3541C174.346 75.1562 174.766 75.0573 175.232 75.0573C175.701 75.0573 176.117 75.1562 176.479 75.3541C176.84 75.552 177.124 75.819 177.33 76.1549C177.536 76.4908 177.639 76.8645 177.639 77.276C177.639 77.5703 177.585 77.858 177.479 78.1393C177.374 78.4179 177.192 78.7291 176.932 79.0729C176.674 79.414 176.316 79.8307 175.857 80.3229L174.061 82.2448V82.3073H177.779V83.1666H172.732ZM181.939 75.0573C182.268 75.0599 182.596 75.1224 182.924 75.2448C183.252 75.3671 183.551 75.5703 183.822 75.8541C184.093 76.1354 184.311 76.5195 184.475 77.0065C184.639 77.4934 184.721 78.1041 184.721 78.8385C184.721 79.5494 184.653 80.1809 184.518 80.733C184.385 81.2825 184.192 81.7461 183.939 82.1237C183.689 82.5013 183.385 82.7877 183.025 82.983C182.669 83.1783 182.265 83.276 181.814 83.276C181.367 83.276 180.967 83.1875 180.615 83.0104C180.266 82.8307 179.98 82.582 179.756 82.2643C179.535 81.944 179.393 81.5729 179.33 81.151H180.283C180.369 81.5182 180.54 81.8216 180.795 82.0612C181.053 82.2981 181.393 82.4166 181.814 82.4166C182.432 82.4166 182.919 82.1471 183.275 81.608C183.635 81.069 183.814 80.3073 183.814 79.3229H183.752C183.606 79.5416 183.433 79.7304 183.232 79.8893C183.032 80.0481 182.809 80.1705 182.564 80.2565C182.32 80.3424 182.059 80.3854 181.783 80.3854C181.325 80.3854 180.904 80.2721 180.521 80.0455C180.141 79.8164 179.837 79.5026 179.607 79.1041C179.381 78.7031 179.268 78.2448 179.268 77.7291C179.268 77.2395 179.377 76.7916 179.596 76.3854C179.817 75.9765 180.127 75.651 180.525 75.4088C180.926 75.1666 181.398 75.0494 181.939 75.0573ZM181.939 75.9166C181.611 75.9166 181.316 75.9987 181.053 76.1627C180.792 76.3242 180.585 76.5429 180.432 76.819C180.281 77.0924 180.205 77.3958 180.205 77.7291C180.205 78.0625 180.278 78.3658 180.424 78.6393C180.572 78.9101 180.774 79.1263 181.029 79.2877C181.287 79.4466 181.58 79.526 181.908 79.526C182.156 79.526 182.386 79.4778 182.6 79.3815C182.813 79.2825 182.999 79.1484 183.158 78.9791C183.32 78.8073 183.446 78.6132 183.537 78.3971C183.628 78.1783 183.674 77.9505 183.674 77.7135C183.674 77.401 183.598 77.108 183.447 76.8346C183.299 76.5612 183.093 76.3398 182.83 76.1705C182.57 76.0013 182.273 75.9166 181.939 75.9166Z" fill="#616161"/>
<path d="M209.425 83.276C208.91 83.276 208.45 83.1875 208.046 83.0104C207.645 82.8333 207.326 82.5872 207.089 82.2721C206.855 81.9544 206.727 81.5859 206.707 81.1666H207.691C207.712 81.4244 207.8 81.6471 207.957 81.8346C208.113 82.0195 208.317 82.1627 208.57 82.2643C208.822 82.3658 209.102 82.4166 209.41 82.4166C209.753 82.4166 210.058 82.3567 210.324 82.2369C210.589 82.1171 210.798 81.9505 210.949 81.7369C211.1 81.5234 211.175 81.276 211.175 80.9948C211.175 80.7005 211.102 80.4414 210.957 80.2174C210.811 79.9908 210.597 79.8138 210.316 79.6862C210.035 79.5586 209.691 79.4948 209.285 79.4948H208.644V78.6354H209.285C209.602 78.6354 209.881 78.5781 210.121 78.4635C210.363 78.3489 210.552 78.1875 210.687 77.9791C210.825 77.7708 210.894 77.526 210.894 77.2448C210.894 76.9739 210.834 76.7382 210.714 76.5377C210.595 76.3372 210.425 76.1809 210.207 76.069C209.99 75.957 209.735 75.901 209.441 75.901C209.165 75.901 208.904 75.9518 208.66 76.0533C208.417 76.1523 208.22 76.2968 208.066 76.4869C207.912 76.6744 207.829 76.901 207.816 77.1666H206.878C206.894 76.7474 207.02 76.3802 207.257 76.0651C207.494 75.7474 207.804 75.5 208.187 75.3229C208.572 75.1458 208.996 75.0573 209.457 75.0573C209.951 75.0573 210.376 75.1575 210.73 75.358C211.084 75.5559 211.356 75.8177 211.546 76.1432C211.736 76.4687 211.832 76.8203 211.832 77.1979C211.832 77.6484 211.713 78.0325 211.476 78.3502C211.242 78.6679 210.923 78.888 210.519 79.0104V79.0729C211.024 79.1562 211.419 79.3711 211.703 79.7174C211.986 80.0612 212.128 80.4869 212.128 80.9948C212.128 81.4296 212.01 81.8203 211.773 82.1666C211.539 82.5104 211.218 82.7812 210.812 82.9791C210.406 83.177 209.944 83.276 209.425 83.276ZM216.335 83.276C215.747 83.276 215.246 83.1158 214.832 82.7955C214.417 82.4726 214.101 82.0052 213.882 81.3932C213.664 80.7786 213.554 80.0364 213.554 79.1666C213.554 78.302 213.664 77.5638 213.882 76.9518C214.104 76.3372 214.421 75.8684 214.835 75.5455C215.252 75.22 215.752 75.0573 216.335 75.0573C216.919 75.0573 217.417 75.22 217.832 75.5455C218.248 75.8684 218.566 76.3372 218.785 76.9518C219.006 77.5638 219.117 78.302 219.117 79.1666C219.117 80.0364 219.007 80.7786 218.789 81.3932C218.57 82.0052 218.253 82.4726 217.839 82.7955C217.425 83.1158 216.924 83.276 216.335 83.276ZM216.335 82.4166C216.919 82.4166 217.372 82.1354 217.695 81.5729C218.018 81.0104 218.179 80.2083 218.179 79.1666C218.179 78.4739 218.105 77.8841 217.957 77.3971C217.811 76.9101 217.6 76.539 217.324 76.2838C217.05 76.0286 216.721 75.901 216.335 75.901C215.757 75.901 215.306 76.1862 214.98 76.7565C214.654 77.3242 214.492 78.1276 214.492 79.1666C214.492 79.8593 214.565 80.4479 214.71 80.9323C214.856 81.4166 215.066 81.7851 215.339 82.0377C215.615 82.2903 215.947 82.4166 216.335 82.4166Z" fill="#1270B0"/>
<path d="M248.084 75.1666V83.1666H247.115V76.1823H247.068L245.115 77.4791V76.4948L247.115 75.1666H248.084Z" fill="#17A1FA"/>
</g>
<g clip-path="url(#clip3_314_77)">
<rect x="30" y="98.3334" width="24" height="24" rx="4" fill="#329D90"/>
<path d="M39.498 114.833V114.13L42.1387 111.24C42.4486 110.901 42.7038 110.607 42.9043 110.357C43.1048 110.104 43.2533 109.867 43.3496 109.646C43.4486 109.422 43.498 109.188 43.498 108.943C43.498 108.661 43.4303 108.418 43.2949 108.212C43.1621 108.007 42.9798 107.848 42.748 107.736C42.5163 107.624 42.2559 107.568 41.9668 107.568C41.6595 107.568 41.3913 107.632 41.1621 107.759C40.9355 107.884 40.7598 108.06 40.6348 108.286C40.5124 108.513 40.4512 108.779 40.4512 109.083H39.5293C39.5293 108.615 39.6374 108.203 39.8535 107.849C40.0697 107.495 40.3639 107.219 40.7363 107.021C41.1113 106.823 41.5319 106.724 41.998 106.724C42.4668 106.724 42.8822 106.823 43.2441 107.021C43.6061 107.219 43.89 107.486 44.0957 107.822C44.3014 108.158 44.4043 108.531 44.4043 108.943C44.4043 109.237 44.3509 109.525 44.2441 109.806C44.14 110.085 43.9577 110.396 43.6973 110.74C43.4395 111.081 43.0814 111.497 42.623 111.99L40.8262 113.911V113.974H44.5449V114.833H39.498Z" fill="white"/>
<path d="M76.1958 114.943C75.6802 114.943 75.2205 114.854 74.8169 114.677C74.4159 114.5 74.0968 114.254 73.8599 113.939C73.6255 113.621 73.4979 113.253 73.4771 112.833H74.4614C74.4823 113.091 74.5708 113.314 74.7271 113.501C74.8833 113.686 75.0877 113.829 75.3403 113.931C75.5929 114.033 75.8729 114.083 76.1802 114.083C76.5239 114.083 76.8286 114.023 77.0942 113.904C77.3599 113.784 77.5682 113.617 77.7192 113.404C77.8703 113.19 77.9458 112.943 77.9458 112.661C77.9458 112.367 77.8729 112.108 77.7271 111.884C77.5812 111.658 77.3677 111.481 77.0864 111.353C76.8052 111.225 76.4614 111.161 76.0552 111.161H75.4146V110.302H76.0552C76.3729 110.302 76.6515 110.245 76.8911 110.13C77.1333 110.016 77.3221 109.854 77.4575 109.646C77.5955 109.438 77.6646 109.193 77.6646 108.911C77.6646 108.641 77.6047 108.405 77.4849 108.204C77.3651 108.004 77.1958 107.848 76.9771 107.736C76.7609 107.624 76.5057 107.568 76.2114 107.568C75.9354 107.568 75.675 107.619 75.4302 107.72C75.188 107.819 74.9901 107.964 74.8364 108.154C74.6828 108.341 74.5994 108.568 74.5864 108.833H73.6489C73.6646 108.414 73.7909 108.047 74.0278 107.732C74.2648 107.414 74.5747 107.167 74.9575 106.99C75.3429 106.813 75.7661 106.724 76.2271 106.724C76.7218 106.724 77.1463 106.824 77.5005 107.025C77.8547 107.223 78.1268 107.484 78.3169 107.81C78.507 108.135 78.6021 108.487 78.6021 108.865C78.6021 109.315 78.4836 109.699 78.2466 110.017C78.0122 110.335 77.6932 110.555 77.2896 110.677V110.74C77.7948 110.823 78.1893 111.038 78.4731 111.384C78.757 111.728 78.8989 112.154 78.8989 112.661C78.8989 113.096 78.7804 113.487 78.5435 113.833C78.3091 114.177 77.9888 114.448 77.5825 114.646C77.1763 114.844 76.714 114.943 76.1958 114.943Z" fill="#B3B3B3"/>
<path d="M107.445 113.193V112.396L110.961 106.833H111.539V108.068H111.148L108.492 112.271V112.333H113.227V113.193H107.445ZM111.211 114.833V112.951V112.579V106.833H112.133V114.833H111.211Z" fill="#B3B3B3"/>
<path d="M144.482 114.943C144.024 114.943 143.611 114.852 143.244 114.669C142.876 114.487 142.582 114.237 142.361 113.919C142.139 113.602 142.018 113.24 141.998 112.833H142.935C142.972 113.195 143.136 113.495 143.427 113.732C143.722 113.966 144.073 114.083 144.482 114.083C144.81 114.083 145.102 114.007 145.357 113.853C145.615 113.699 145.817 113.488 145.962 113.22C146.111 112.949 146.185 112.643 146.185 112.302C146.185 111.953 146.108 111.642 145.955 111.369C145.804 111.092 145.595 110.875 145.33 110.716C145.064 110.557 144.761 110.477 144.419 110.474C144.175 110.471 143.923 110.509 143.666 110.587C143.408 110.663 143.195 110.76 143.029 110.88L142.123 110.771L142.607 106.833H146.763V107.693H143.419L143.138 110.052H143.185C143.349 109.922 143.555 109.814 143.802 109.728C144.05 109.642 144.307 109.599 144.576 109.599C145.065 109.599 145.501 109.716 145.884 109.951C146.27 110.182 146.572 110.5 146.791 110.904C147.012 111.307 147.123 111.768 147.123 112.286C147.123 112.797 147.008 113.253 146.779 113.654C146.552 114.052 146.24 114.367 145.841 114.599C145.443 114.828 144.99 114.943 144.482 114.943Z" fill="#B3B3B3"/>
<path d="M178.719 114.943C178.391 114.938 178.063 114.875 177.734 114.755C177.406 114.635 177.107 114.434 176.836 114.15C176.565 113.863 176.348 113.477 176.184 112.99C176.02 112.5 175.937 111.885 175.937 111.146C175.937 110.438 176.004 109.81 176.137 109.263C176.27 108.714 176.462 108.251 176.715 107.876C176.967 107.499 177.272 107.212 177.629 107.017C177.988 106.822 178.393 106.724 178.844 106.724C179.292 106.724 179.69 106.814 180.039 106.994C180.391 107.171 180.677 107.418 180.898 107.736C181.12 108.053 181.263 108.419 181.328 108.833H180.375C180.286 108.474 180.115 108.176 179.859 107.939C179.604 107.702 179.266 107.583 178.844 107.583C178.224 107.583 177.736 107.853 177.379 108.392C177.025 108.931 176.846 109.688 176.844 110.661H176.906C177.052 110.44 177.225 110.251 177.426 110.095C177.629 109.936 177.853 109.814 178.098 109.728C178.342 109.642 178.602 109.599 178.875 109.599C179.333 109.599 179.753 109.714 180.133 109.943C180.513 110.169 180.818 110.483 181.047 110.884C181.276 111.283 181.391 111.74 181.391 112.255C181.391 112.75 181.28 113.203 181.059 113.615C180.837 114.023 180.526 114.349 180.125 114.591C179.727 114.831 179.258 114.948 178.719 114.943ZM178.719 114.083C179.047 114.083 179.341 114.001 179.602 113.837C179.865 113.673 180.072 113.453 180.223 113.177C180.376 112.901 180.453 112.594 180.453 112.255C180.453 111.925 180.379 111.624 180.23 111.353C180.085 111.079 179.883 110.862 179.625 110.701C179.37 110.539 179.078 110.458 178.75 110.458C178.503 110.458 178.272 110.508 178.059 110.607C177.845 110.703 177.658 110.836 177.496 111.005C177.337 111.175 177.212 111.369 177.121 111.587C177.03 111.803 176.984 112.031 176.984 112.271C176.984 112.589 177.059 112.885 177.207 113.161C177.358 113.438 177.564 113.66 177.824 113.829C178.087 113.999 178.385 114.083 178.719 114.083Z" fill="#B3B3B3"/>
<path d="M210.77 114.833L214.348 107.755V107.693H210.223V106.833H215.348V107.74L211.785 114.833H210.77Z" fill="#17A1FA"/>
<path d="M247.001 114.943C246.465 114.943 245.991 114.848 245.58 114.658C245.171 114.465 244.852 114.201 244.623 113.865C244.393 113.526 244.28 113.141 244.283 112.708C244.28 112.37 244.347 112.057 244.482 111.771C244.617 111.482 244.802 111.241 245.037 111.048C245.274 110.853 245.538 110.729 245.83 110.677V110.63C245.447 110.531 245.142 110.316 244.916 109.986C244.689 109.652 244.577 109.273 244.58 108.849C244.577 108.443 244.68 108.079 244.888 107.759C245.097 107.439 245.383 107.186 245.748 107.001C246.115 106.816 246.533 106.724 247.001 106.724C247.465 106.724 247.879 106.816 248.244 107.001C248.608 107.186 248.895 107.439 249.103 107.759C249.314 108.079 249.421 108.443 249.423 108.849C249.421 109.273 249.305 109.652 249.076 109.986C248.849 110.316 248.548 110.531 248.173 110.63V110.677C248.462 110.729 248.723 110.853 248.955 111.048C249.186 111.241 249.371 111.482 249.509 111.771C249.647 112.057 249.718 112.37 249.72 112.708C249.718 113.141 249.6 113.526 249.369 113.865C249.139 114.201 248.82 114.465 248.412 114.658C248.005 114.848 247.535 114.943 247.001 114.943ZM247.001 114.083C247.363 114.083 247.676 114.025 247.939 113.908C248.202 113.79 248.405 113.625 248.548 113.411C248.692 113.198 248.764 112.948 248.767 112.661C248.764 112.359 248.686 112.092 248.533 111.861C248.379 111.629 248.169 111.447 247.904 111.314C247.641 111.181 247.34 111.115 247.001 111.115C246.66 111.115 246.356 111.181 246.087 111.314C245.822 111.447 245.612 111.629 245.458 111.861C245.307 112.092 245.233 112.359 245.236 112.661C245.233 112.948 245.302 113.198 245.443 113.411C245.586 113.625 245.791 113.79 246.056 113.908C246.322 114.025 246.637 114.083 247.001 114.083ZM247.001 110.286C247.288 110.286 247.542 110.229 247.763 110.115C247.987 110 248.163 109.84 248.291 109.634C248.418 109.428 248.483 109.188 248.486 108.911C248.483 108.641 248.419 108.405 248.294 108.204C248.169 108.001 247.996 107.845 247.775 107.736C247.554 107.624 247.296 107.568 247.001 107.568C246.702 107.568 246.44 107.624 246.216 107.736C245.992 107.845 245.819 108.001 245.697 108.204C245.574 108.405 245.514 108.641 245.517 108.911C245.514 109.188 245.576 109.428 245.701 109.634C245.828 109.84 246.004 110 246.228 110.115C246.452 110.229 246.71 110.286 247.001 110.286Z" fill="#17A1FA"/>
</g>
<g clip-path="url(#clip4_314_77)">
<path d="M41.9429 138.391C42.271 138.393 42.5991 138.456 42.9272 138.578C43.2554 138.701 43.5549 138.904 43.8257 139.187C44.0965 139.469 44.314 139.853 44.478 140.34C44.6421 140.827 44.7241 141.437 44.7241 142.172C44.7241 142.883 44.6564 143.514 44.521 144.066C44.3882 144.616 44.1955 145.079 43.9429 145.457C43.6929 145.835 43.3882 146.121 43.0288 146.316C42.672 146.512 42.2684 146.609 41.8179 146.609C41.37 146.609 40.9702 146.521 40.6187 146.344C40.2697 146.164 39.9832 145.915 39.7593 145.598C39.5379 145.277 39.396 144.906 39.3335 144.484H40.2866C40.3726 144.852 40.5431 145.155 40.7983 145.395C41.0562 145.632 41.396 145.75 41.8179 145.75C42.4351 145.75 42.922 145.48 43.2788 144.941C43.6382 144.402 43.8179 143.641 43.8179 142.656H43.7554C43.6095 142.875 43.4364 143.064 43.2358 143.223C43.0353 143.382 42.8127 143.504 42.5679 143.59C42.3231 143.676 42.0627 143.719 41.7866 143.719C41.3283 143.719 40.9077 143.605 40.5249 143.379C40.1447 143.15 39.84 142.836 39.6108 142.437C39.3843 142.036 39.271 141.578 39.271 141.062C39.271 140.573 39.3804 140.125 39.5991 139.719C39.8205 139.31 40.1304 138.984 40.5288 138.742C40.9299 138.5 41.4012 138.383 41.9429 138.391ZM41.9429 139.25C41.6147 139.25 41.3192 139.332 41.0562 139.496C40.7957 139.658 40.5887 139.876 40.4351 140.152C40.284 140.426 40.2085 140.729 40.2085 141.062C40.2085 141.396 40.2814 141.699 40.4272 141.973C40.5757 142.243 40.7775 142.46 41.0327 142.621C41.2905 142.78 41.5835 142.859 41.9116 142.859C42.159 142.859 42.3895 142.811 42.603 142.715C42.8166 142.616 43.0028 142.482 43.1616 142.312C43.3231 142.141 43.4494 141.947 43.5405 141.73C43.6317 141.512 43.6772 141.284 43.6772 141.047C43.6772 140.734 43.6017 140.441 43.4507 140.168C43.3022 139.895 43.0965 139.673 42.8335 139.504C42.5731 139.335 42.2762 139.25 41.9429 139.25Z" fill="#B3B3B3"/>
<path d="M73.813 138.5V146.5H72.8442V139.516H72.7974L70.8442 140.812V139.828L72.8442 138.5H73.813ZM78.7231 146.609C78.1346 146.609 77.6333 146.449 77.2192 146.129C76.8052 145.806 76.4888 145.339 76.27 144.727C76.0513 144.112 75.9419 143.37 75.9419 142.5C75.9419 141.635 76.0513 140.897 76.27 140.285C76.4914 139.671 76.8091 139.202 77.2231 138.879C77.6398 138.553 78.1398 138.391 78.7231 138.391C79.3065 138.391 79.8052 138.553 80.2192 138.879C80.6359 139.202 80.9536 139.671 81.1724 140.285C81.3937 140.897 81.5044 141.635 81.5044 142.5C81.5044 143.37 81.395 144.112 81.1763 144.727C80.9575 145.339 80.6411 145.806 80.2271 146.129C79.813 146.449 79.3117 146.609 78.7231 146.609ZM78.7231 145.75C79.3065 145.75 79.7596 145.469 80.0825 144.906C80.4054 144.344 80.5669 143.542 80.5669 142.5C80.5669 141.807 80.4927 141.217 80.3442 140.73C80.1984 140.243 79.9875 139.872 79.7114 139.617C79.438 139.362 79.1086 139.234 78.7231 139.234C78.145 139.234 77.6932 139.52 77.3677 140.09C77.0422 140.658 76.8794 141.461 76.8794 142.5C76.8794 143.193 76.9523 143.781 77.0981 144.266C77.244 144.75 77.4536 145.118 77.7271 145.371C78.0031 145.624 78.3351 145.75 78.7231 145.75Z" fill="#B3B3B3"/>
<path d="M108.861 138.5V146.5H107.892V139.516H107.845L105.892 140.812V139.828L107.892 138.5H108.861ZM113.974 138.5V146.5H113.005V139.516H112.958L111.005 140.812V139.828L113.005 138.5H113.974Z" fill="#B3B3B3"/>
<path d="M142.254 138.5V146.5H141.285V139.516H141.238L139.285 140.812V139.828L141.285 138.5H142.254ZM144.555 146.5V145.797L147.195 142.906C147.505 142.568 147.76 142.273 147.961 142.023C148.161 141.771 148.31 141.534 148.406 141.312C148.505 141.089 148.555 140.854 148.555 140.609C148.555 140.328 148.487 140.085 148.352 139.879C148.219 139.673 148.036 139.514 147.805 139.402C147.573 139.29 147.313 139.234 147.023 139.234C146.716 139.234 146.448 139.298 146.219 139.426C145.992 139.551 145.816 139.727 145.691 139.953C145.569 140.18 145.508 140.445 145.508 140.75H144.586C144.586 140.281 144.694 139.87 144.91 139.516C145.126 139.161 145.421 138.885 145.793 138.687C146.168 138.49 146.589 138.391 147.055 138.391C147.523 138.391 147.939 138.49 148.301 138.687C148.663 138.885 148.947 139.152 149.152 139.488C149.358 139.824 149.461 140.198 149.461 140.609C149.461 140.904 149.408 141.191 149.301 141.473C149.197 141.751 149.014 142.062 148.754 142.406C148.496 142.747 148.138 143.164 147.68 143.656L145.883 145.578V145.641H149.602V146.5H144.555Z" fill="#B3B3B3"/>
<path d="M176.249 138.5V146.5H175.28V139.516H175.233L173.28 140.812V139.828L175.28 138.5H176.249ZM181.252 146.609C180.737 146.609 180.277 146.521 179.874 146.344C179.472 146.167 179.153 145.921 178.917 145.605C178.682 145.288 178.555 144.919 178.534 144.5H179.518C179.539 144.758 179.627 144.98 179.784 145.168C179.94 145.353 180.144 145.496 180.397 145.598C180.65 145.699 180.93 145.75 181.237 145.75C181.581 145.75 181.885 145.69 182.151 145.57C182.417 145.451 182.625 145.284 182.776 145.07C182.927 144.857 183.002 144.609 183.002 144.328C183.002 144.034 182.93 143.775 182.784 143.551C182.638 143.324 182.424 143.147 182.143 143.02C181.862 142.892 181.518 142.828 181.112 142.828H180.471V141.969H181.112C181.43 141.969 181.708 141.911 181.948 141.797C182.19 141.682 182.379 141.521 182.514 141.312C182.652 141.104 182.721 140.859 182.721 140.578C182.721 140.307 182.661 140.072 182.542 139.871C182.422 139.671 182.252 139.514 182.034 139.402C181.818 139.29 181.562 139.234 181.268 139.234C180.992 139.234 180.732 139.285 180.487 139.387C180.245 139.486 180.047 139.63 179.893 139.82C179.739 140.008 179.656 140.234 179.643 140.5H178.706C178.721 140.081 178.847 139.714 179.084 139.398C179.321 139.081 179.631 138.833 180.014 138.656C180.4 138.479 180.823 138.391 181.284 138.391C181.778 138.391 182.203 138.491 182.557 138.691C182.911 138.889 183.183 139.151 183.374 139.477C183.564 139.802 183.659 140.154 183.659 140.531C183.659 140.982 183.54 141.366 183.303 141.684C183.069 142.001 182.75 142.221 182.346 142.344V142.406C182.851 142.49 183.246 142.704 183.53 143.051C183.814 143.395 183.956 143.82 183.956 144.328C183.956 144.763 183.837 145.154 183.6 145.5C183.366 145.844 183.045 146.115 182.639 146.312C182.233 146.51 181.771 146.609 181.252 146.609Z" fill="#B3B3B3"/>
<path d="M210.389 138.5V146.5H209.42V139.516H209.373L207.42 140.812V139.828L209.42 138.5H210.389ZM212.502 144.859V144.062L216.018 138.5H216.596V139.734H216.205L213.549 143.937V144H218.283V144.859H212.502ZM216.268 146.5V144.617V144.246V138.5H217.189V146.5H216.268Z" fill="#17A1FA"/>
<path d="M244.738 138.5V146.5H243.769V139.516H243.722L241.769 140.812V139.828L243.769 138.5H244.738ZM249.539 146.609C249.08 146.609 248.667 146.518 248.3 146.336C247.933 146.154 247.639 145.904 247.417 145.586C247.196 145.268 247.075 144.906 247.054 144.5H247.992C248.028 144.862 248.192 145.161 248.484 145.398C248.778 145.633 249.13 145.75 249.539 145.75C249.867 145.75 250.158 145.673 250.414 145.52C250.671 145.366 250.873 145.155 251.019 144.887C251.167 144.616 251.242 144.31 251.242 143.969C251.242 143.62 251.165 143.309 251.011 143.035C250.86 142.759 250.652 142.542 250.386 142.383C250.121 142.224 249.817 142.143 249.476 142.141C249.231 142.138 248.98 142.176 248.722 142.254C248.464 142.329 248.252 142.427 248.085 142.547L247.179 142.437L247.664 138.5H251.82V139.359H248.476L248.195 141.719H248.242C248.406 141.589 248.611 141.48 248.859 141.395C249.106 141.309 249.364 141.266 249.632 141.266C250.122 141.266 250.558 141.383 250.941 141.617C251.326 141.849 251.628 142.167 251.847 142.57C252.069 142.974 252.179 143.435 252.179 143.953C252.179 144.464 252.065 144.919 251.835 145.32C251.609 145.719 251.296 146.034 250.898 146.266C250.5 146.495 250.046 146.609 249.539 146.609Z" fill="#17A1FA"/>
</g>
<g clip-path="url(#clip5_314_77)">
<path d="M39.6519 170.167V178.167H38.6831V171.182H38.6362L36.6831 172.479V171.495L38.6831 170.167H39.6519ZM44.6089 178.276C44.2808 178.271 43.9526 178.208 43.6245 178.089C43.2964 177.969 42.9969 177.767 42.7261 177.483C42.4552 177.197 42.2378 176.81 42.0737 176.323C41.9097 175.833 41.8276 175.219 41.8276 174.479C41.8276 173.771 41.894 173.143 42.0269 172.596C42.1597 172.047 42.3524 171.585 42.605 171.21C42.8576 170.832 43.1623 170.546 43.519 170.35C43.8784 170.155 44.2834 170.057 44.7339 170.057C45.1818 170.057 45.5802 170.147 45.9292 170.327C46.2808 170.504 46.5672 170.751 46.7886 171.069C47.0099 171.387 47.1532 171.753 47.2183 172.167H46.2651C46.1766 171.807 46.0047 171.509 45.7495 171.272C45.4943 171.035 45.1558 170.917 44.7339 170.917C44.1141 170.917 43.6258 171.186 43.269 171.725C42.9149 172.264 42.7365 173.021 42.7339 173.995H42.7964C42.9422 173.773 43.1154 173.585 43.3159 173.428C43.519 173.269 43.743 173.147 43.9878 173.061C44.2326 172.975 44.4917 172.932 44.7651 172.932C45.2235 172.932 45.6427 173.047 46.0229 173.276C46.4032 173.503 46.7078 173.816 46.937 174.217C47.1662 174.616 47.2808 175.073 47.2808 175.589C47.2808 176.083 47.1701 176.536 46.9487 176.948C46.7274 177.357 46.4162 177.682 46.0151 177.924C45.6167 178.164 45.1479 178.281 44.6089 178.276ZM44.6089 177.417C44.937 177.417 45.2313 177.335 45.4917 177.171C45.7547 177.006 45.9618 176.786 46.1128 176.51C46.2664 176.234 46.3433 175.927 46.3433 175.589C46.3433 175.258 46.269 174.957 46.1206 174.686C45.9748 174.413 45.7729 174.195 45.5151 174.034C45.2599 173.872 44.9683 173.792 44.6401 173.792C44.3927 173.792 44.1623 173.841 43.9487 173.94C43.7352 174.036 43.5477 174.169 43.3862 174.339C43.2274 174.508 43.1024 174.702 43.0112 174.921C42.9201 175.137 42.8745 175.365 42.8745 175.604C42.8745 175.922 42.9487 176.219 43.0972 176.495C43.2482 176.771 43.4539 176.993 43.7144 177.163C43.9774 177.332 44.2756 177.417 44.6089 177.417Z" fill="#B3B3B3"/>
<path d="M74.1084 170.167V178.167H73.1396V171.182H73.0928L71.1396 172.479V171.495L73.1396 170.167H74.1084ZM76.6592 178.167L80.2373 171.089V171.026H76.1123V170.167H81.2373V171.073L77.6748 178.167H76.6592Z" fill="#B3B3B3"/>
<path d="M108.028 170.167V178.167H107.06V171.182H107.013L105.06 172.479V171.495L107.06 170.167H108.028ZM112.892 178.276C112.355 178.276 111.881 178.181 111.47 177.991C111.061 177.798 110.742 177.534 110.513 177.198C110.284 176.859 110.17 176.474 110.173 176.042C110.17 175.703 110.237 175.391 110.372 175.104C110.507 174.815 110.692 174.574 110.927 174.381C111.164 174.186 111.428 174.062 111.72 174.01V173.964C111.337 173.865 111.032 173.65 110.806 173.319C110.579 172.986 110.467 172.607 110.47 172.182C110.467 171.776 110.57 171.413 110.778 171.092C110.987 170.772 111.273 170.519 111.638 170.335C112.005 170.15 112.423 170.057 112.892 170.057C113.355 170.057 113.769 170.15 114.134 170.335C114.498 170.519 114.785 170.772 114.993 171.092C115.204 171.413 115.311 171.776 115.313 172.182C115.311 172.607 115.195 172.986 114.966 173.319C114.739 173.65 114.438 173.865 114.063 173.964V174.01C114.353 174.062 114.613 174.186 114.845 174.381C115.076 174.574 115.261 174.815 115.399 175.104C115.537 175.391 115.608 175.703 115.61 176.042C115.608 176.474 115.491 176.859 115.259 177.198C115.03 177.534 114.711 177.798 114.302 177.991C113.896 178.181 113.425 178.276 112.892 178.276ZM112.892 177.417C113.254 177.417 113.566 177.358 113.829 177.241C114.092 177.124 114.295 176.958 114.438 176.745C114.582 176.531 114.655 176.281 114.657 175.995C114.655 175.693 114.576 175.426 114.423 175.194C114.269 174.962 114.06 174.78 113.794 174.647C113.531 174.514 113.23 174.448 112.892 174.448C112.55 174.448 112.246 174.514 111.978 174.647C111.712 174.78 111.502 174.962 111.349 175.194C111.198 175.426 111.123 175.693 111.126 175.995C111.123 176.281 111.192 176.531 111.333 176.745C111.476 176.958 111.681 177.124 111.946 177.241C112.212 177.358 112.527 177.417 112.892 177.417ZM112.892 173.62C113.178 173.62 113.432 173.562 113.653 173.448C113.877 173.333 114.053 173.173 114.181 172.967C114.308 172.762 114.373 172.521 114.376 172.245C114.373 171.974 114.31 171.738 114.185 171.538C114.06 171.335 113.886 171.178 113.665 171.069C113.444 170.957 113.186 170.901 112.892 170.901C112.592 170.901 112.33 170.957 112.106 171.069C111.882 171.178 111.709 171.335 111.587 171.538C111.465 171.738 111.405 171.974 111.407 172.245C111.405 172.521 111.466 172.762 111.591 172.967C111.718 173.173 111.894 173.333 112.118 173.448C112.342 173.562 112.6 173.62 112.892 173.62Z" fill="#B3B3B3"/>
<path d="M142.152 170.167V178.167H141.183V171.182H141.136L139.183 172.479V171.495L141.183 170.167H142.152ZM147 170.057C147.328 170.06 147.656 170.122 147.984 170.245C148.312 170.367 148.611 170.57 148.882 170.854C149.153 171.135 149.371 171.519 149.535 172.006C149.699 172.493 149.781 173.104 149.781 173.839C149.781 174.549 149.713 175.181 149.578 175.733C149.445 176.283 149.252 176.746 149 177.124C148.75 177.501 148.445 177.788 148.085 177.983C147.729 178.178 147.325 178.276 146.875 178.276C146.427 178.276 146.027 178.187 145.675 178.01C145.326 177.831 145.04 177.582 144.816 177.264C144.595 176.944 144.453 176.573 144.39 176.151H145.343C145.429 176.518 145.6 176.822 145.855 177.061C146.113 177.298 146.453 177.417 146.875 177.417C147.492 177.417 147.979 177.147 148.335 176.608C148.695 176.069 148.875 175.307 148.875 174.323H148.812C148.666 174.542 148.493 174.73 148.292 174.889C148.092 175.048 147.869 175.171 147.625 175.256C147.38 175.342 147.119 175.385 146.843 175.385C146.385 175.385 145.964 175.272 145.582 175.046C145.201 174.816 144.897 174.503 144.667 174.104C144.441 173.703 144.328 173.245 144.328 172.729C144.328 172.24 144.437 171.792 144.656 171.385C144.877 170.977 145.187 170.651 145.585 170.409C145.986 170.167 146.458 170.049 147 170.057ZM147 170.917C146.671 170.917 146.376 170.999 146.113 171.163C145.852 171.324 145.645 171.543 145.492 171.819C145.341 172.092 145.265 172.396 145.265 172.729C145.265 173.062 145.338 173.366 145.484 173.639C145.632 173.91 145.834 174.126 146.089 174.288C146.347 174.447 146.64 174.526 146.968 174.526C147.216 174.526 147.446 174.478 147.66 174.381C147.873 174.283 148.059 174.148 148.218 173.979C148.38 173.807 148.506 173.613 148.597 173.397C148.688 173.178 148.734 172.95 148.734 172.714C148.734 172.401 148.658 172.108 148.507 171.835C148.359 171.561 148.153 171.34 147.89 171.171C147.63 171.001 147.333 170.917 147 170.917Z" fill="#B3B3B3"/>
<path d="M172.727 178.167V177.464L175.368 174.573C175.678 174.234 175.933 173.94 176.133 173.69C176.334 173.437 176.482 173.2 176.579 172.979C176.678 172.755 176.727 172.521 176.727 172.276C176.727 171.995 176.659 171.751 176.524 171.546C176.391 171.34 176.209 171.181 175.977 171.069C175.745 170.957 175.485 170.901 175.196 170.901C174.889 170.901 174.62 170.965 174.391 171.092C174.165 171.217 173.989 171.393 173.864 171.62C173.741 171.846 173.68 172.112 173.68 172.417H172.758C172.758 171.948 172.866 171.536 173.083 171.182C173.299 170.828 173.593 170.552 173.965 170.354C174.34 170.156 174.761 170.057 175.227 170.057C175.696 170.057 176.111 170.156 176.473 170.354C176.835 170.552 177.119 170.819 177.325 171.155C177.53 171.491 177.633 171.865 177.633 172.276C177.633 172.57 177.58 172.858 177.473 173.139C177.369 173.418 177.187 173.729 176.926 174.073C176.668 174.414 176.31 174.831 175.852 175.323L174.055 177.245V177.307H177.774V178.167H172.727ZM181.997 178.276C181.408 178.276 180.907 178.116 180.493 177.796C180.079 177.473 179.762 177.005 179.543 176.393C179.325 175.779 179.215 175.036 179.215 174.167C179.215 173.302 179.325 172.564 179.543 171.952C179.765 171.337 180.083 170.868 180.497 170.546C180.913 170.22 181.413 170.057 181.997 170.057C182.58 170.057 183.079 170.22 183.493 170.546C183.909 170.868 184.227 171.337 184.446 171.952C184.667 172.564 184.778 173.302 184.778 174.167C184.778 175.036 184.668 175.779 184.45 176.393C184.231 177.005 183.915 177.473 183.5 177.796C183.086 178.116 182.585 178.276 181.997 178.276ZM181.997 177.417C182.58 177.417 183.033 177.135 183.356 176.573C183.679 176.01 183.84 175.208 183.84 174.167C183.84 173.474 183.766 172.884 183.618 172.397C183.472 171.91 183.261 171.539 182.985 171.284C182.711 171.029 182.382 170.901 181.997 170.901C181.418 170.901 180.967 171.186 180.641 171.756C180.316 172.324 180.153 173.128 180.153 174.167C180.153 174.859 180.226 175.448 180.372 175.932C180.517 176.417 180.727 176.785 181 177.038C181.277 177.29 181.609 177.417 181.997 177.417Z" fill="#B3B3B3"/>
<path d="M207.775 178.167V177.464L210.416 174.573C210.725 174.234 210.981 173.94 211.181 173.69C211.382 173.437 211.53 173.2 211.626 172.979C211.725 172.755 211.775 172.521 211.775 172.276C211.775 171.995 211.707 171.751 211.572 171.546C211.439 171.34 211.257 171.181 211.025 171.069C210.793 170.957 210.533 170.901 210.244 170.901C209.936 170.901 209.668 170.965 209.439 171.092C209.212 171.217 209.037 171.393 208.912 171.62C208.789 171.846 208.728 172.112 208.728 172.417H207.806C207.806 171.948 207.914 171.536 208.13 171.182C208.347 170.828 208.641 170.552 209.013 170.354C209.388 170.156 209.809 170.057 210.275 170.057C210.744 170.057 211.159 170.156 211.521 170.354C211.883 170.552 212.167 170.819 212.373 171.155C212.578 171.491 212.681 171.865 212.681 172.276C212.681 172.57 212.628 172.858 212.521 173.139C212.417 173.418 212.235 173.729 211.974 174.073C211.716 174.414 211.358 174.831 210.9 175.323L209.103 177.245V177.307H212.822V178.167H207.775ZM217.248 170.167V178.167H216.279V171.182H216.232L214.279 172.479V171.495L216.279 170.167H217.248Z" fill="#17A1FA"/>
<path d="M241.168 178.167V177.464L243.809 174.573C244.118 174.234 244.374 173.94 244.574 173.69C244.775 173.437 244.923 173.2 245.02 172.979C245.118 172.755 245.168 172.521 245.168 172.276C245.168 171.995 245.1 171.751 244.965 171.546C244.832 171.34 244.65 171.181 244.418 171.069C244.186 170.957 243.926 170.901 243.637 170.901C243.329 170.901 243.061 170.965 242.832 171.092C242.605 171.217 242.43 171.393 242.305 171.62C242.182 171.846 242.121 172.112 242.121 172.417H241.199C241.199 171.948 241.307 171.536 241.523 171.182C241.74 170.828 242.034 170.552 242.406 170.354C242.781 170.156 243.202 170.057 243.668 170.057C244.137 170.057 244.552 170.156 244.914 170.354C245.276 170.552 245.56 170.819 245.766 171.155C245.971 171.491 246.074 171.865 246.074 172.276C246.074 172.57 246.021 172.858 245.914 173.139C245.81 173.418 245.628 173.729 245.367 174.073C245.109 174.414 244.751 174.831 244.293 175.323L242.496 177.245V177.307H246.215V178.167H241.168ZM247.828 178.167V177.464L250.469 174.573C250.779 174.234 251.034 173.94 251.234 173.69C251.435 173.437 251.583 173.2 251.68 172.979C251.779 172.755 251.828 172.521 251.828 172.276C251.828 171.995 251.76 171.751 251.625 171.546C251.492 171.34 251.31 171.181 251.078 171.069C250.846 170.957 250.586 170.901 250.297 170.901C249.99 170.901 249.721 170.965 249.492 171.092C249.266 171.217 249.09 171.393 248.965 171.62C248.842 171.846 248.781 172.112 248.781 172.417H247.859C247.859 171.948 247.967 171.536 248.184 171.182C248.4 170.828 248.694 170.552 249.066 170.354C249.441 170.156 249.862 170.057 250.328 170.057C250.797 170.057 251.212 170.156 251.574 170.354C251.936 170.552 252.22 170.819 252.426 171.155C252.632 171.491 252.734 171.865 252.734 172.276C252.734 172.57 252.681 172.858 252.574 173.139C252.47 173.418 252.288 173.729 252.027 174.073C251.77 174.414 251.411 174.831 250.953 175.323L249.156 177.245V177.307H252.875V178.167H247.828Z" fill="#17A1FA"/>
</g>
<g clip-path="url(#clip6_314_77)">
<path d="M35.9961 209.833V209.13L38.6367 206.24C38.9466 205.901 39.2018 205.607 39.4023 205.357C39.6029 205.104 39.7513 204.867 39.8477 204.646C39.9466 204.422 39.9961 204.188 39.9961 203.943C39.9961 203.661 39.9284 203.418 39.793 203.212C39.6602 203.007 39.4779 202.848 39.2461 202.736C39.0143 202.624 38.7539 202.568 38.4648 202.568C38.1576 202.568 37.8893 202.632 37.6602 202.759C37.4336 202.884 37.2578 203.06 37.1328 203.286C37.0104 203.513 36.9492 203.779 36.9492 204.083H36.0273C36.0273 203.615 36.1354 203.203 36.3516 202.849C36.5677 202.495 36.862 202.219 37.2344 202.021C37.6094 201.823 38.0299 201.724 38.4961 201.724C38.9648 201.724 39.3802 201.823 39.7422 202.021C40.1042 202.219 40.388 202.486 40.5938 202.822C40.7995 203.158 40.9023 203.531 40.9023 203.943C40.9023 204.237 40.849 204.525 40.7422 204.806C40.638 205.085 40.4557 205.396 40.1953 205.74C39.9375 206.081 39.5794 206.497 39.1211 206.99L37.3242 208.911V208.974H41.043V209.833H35.9961ZM45.3594 209.943C44.8438 209.943 44.3841 209.854 43.9805 209.677C43.5794 209.5 43.2604 209.254 43.0234 208.939C42.7891 208.621 42.6615 208.253 42.6406 207.833H43.625C43.6458 208.091 43.7344 208.314 43.8906 208.501C44.0469 208.686 44.2513 208.829 44.5039 208.931C44.7565 209.033 45.0365 209.083 45.3438 209.083C45.6875 209.083 45.9922 209.023 46.2578 208.904C46.5234 208.784 46.7318 208.617 46.8828 208.404C47.0339 208.19 47.1094 207.943 47.1094 207.661C47.1094 207.367 47.0365 207.108 46.8906 206.884C46.7448 206.658 46.5313 206.481 46.25 206.353C45.9688 206.225 45.625 206.161 45.2188 206.161H44.5781V205.302H45.2188C45.5365 205.302 45.8151 205.245 46.0547 205.13C46.2969 205.016 46.4857 204.854 46.6211 204.646C46.7591 204.438 46.8281 204.193 46.8281 203.911C46.8281 203.641 46.7682 203.405 46.6484 203.204C46.5286 203.004 46.3594 202.848 46.1406 202.736C45.9245 202.624 45.6693 202.568 45.375 202.568C45.099 202.568 44.8385 202.619 44.5938 202.72C44.3516 202.819 44.1536 202.964 44 203.154C43.8464 203.341 43.763 203.568 43.75 203.833H42.8125C42.8281 203.414 42.9544 203.047 43.1914 202.732C43.4284 202.414 43.7383 202.167 44.1211 201.99C44.5065 201.813 44.9297 201.724 45.3906 201.724C45.8854 201.724 46.3099 201.824 46.6641 202.025C47.0182 202.223 47.2904 202.484 47.4805 202.81C47.6706 203.135 47.7656 203.487 47.7656 203.865C47.7656 204.315 47.6471 204.699 47.4102 205.017C47.1758 205.335 46.8568 205.555 46.4531 205.677V205.74C46.9583 205.823 47.3529 206.038 47.6367 206.384C47.9206 206.728 48.0625 207.154 48.0625 207.661C48.0625 208.096 47.944 208.487 47.707 208.833C47.4727 209.177 47.1523 209.448 46.7461 209.646C46.3398 209.844 45.8776 209.943 45.3594 209.943Z" fill="#B3B3B3"/>
<path d="M70.2217 209.833V209.13L72.8623 206.24C73.1722 205.901 73.4274 205.607 73.6279 205.357C73.8285 205.104 73.9769 204.867 74.0732 204.646C74.1722 204.422 74.2217 204.188 74.2217 203.943C74.2217 203.661 74.154 203.418 74.0186 203.212C73.8857 203.007 73.7035 202.848 73.4717 202.736C73.2399 202.624 72.9795 202.568 72.6904 202.568C72.3831 202.568 72.1149 202.632 71.8857 202.759C71.6592 202.884 71.4834 203.06 71.3584 203.286C71.236 203.513 71.1748 203.779 71.1748 204.083H70.2529C70.2529 203.615 70.361 203.203 70.5771 202.849C70.7933 202.495 71.0876 202.219 71.46 202.021C71.835 201.823 72.2555 201.724 72.7217 201.724C73.1904 201.724 73.6058 201.823 73.9678 202.021C74.3298 202.219 74.6136 202.486 74.8193 202.822C75.0251 203.158 75.1279 203.531 75.1279 203.943C75.1279 204.237 75.0745 204.525 74.9678 204.806C74.8636 205.085 74.6813 205.396 74.4209 205.74C74.1631 206.081 73.805 206.497 73.3467 206.99L71.5498 208.911V208.974H75.2686V209.833H70.2217ZM76.5225 208.193V207.396L80.0381 201.833H80.6162V203.068H80.2256L77.5693 207.271V207.333H82.3037V208.193H76.5225ZM80.2881 209.833V207.951V207.579V201.833H81.21V209.833H80.2881Z" fill="#B3B3B3"/>
<path d="M104.485 209.833V209.13L107.126 206.24C107.436 205.901 107.691 205.607 107.892 205.357C108.092 205.104 108.241 204.867 108.337 204.646C108.436 204.422 108.485 204.188 108.485 203.943C108.485 203.661 108.418 203.418 108.282 203.212C108.149 203.007 107.967 202.848 107.735 202.736C107.504 202.624 107.243 202.568 106.954 202.568C106.647 202.568 106.379 202.632 106.149 202.759C105.923 202.884 105.747 203.06 105.622 203.286C105.5 203.513 105.438 203.779 105.438 204.083H104.517C104.517 203.615 104.625 203.203 104.841 202.849C105.057 202.495 105.351 202.219 105.724 202.021C106.099 201.823 106.519 201.724 106.985 201.724C107.454 201.724 107.869 201.823 108.231 202.021C108.593 202.219 108.877 202.486 109.083 202.822C109.289 203.158 109.392 203.531 109.392 203.943C109.392 204.237 109.338 204.525 109.231 204.806C109.127 205.085 108.945 205.396 108.685 205.74C108.427 206.081 108.069 206.497 107.61 206.99L105.813 208.911V208.974H109.532V209.833H104.485ZM113.646 209.943C113.187 209.943 112.774 209.852 112.407 209.669C112.04 209.487 111.746 209.237 111.524 208.919C111.303 208.602 111.182 208.24 111.161 207.833H112.099C112.135 208.195 112.299 208.495 112.591 208.732C112.885 208.966 113.237 209.083 113.646 209.083C113.974 209.083 114.265 209.007 114.521 208.853C114.778 208.699 114.98 208.488 115.126 208.22C115.274 207.949 115.349 207.643 115.349 207.302C115.349 206.953 115.272 206.642 115.118 206.369C114.967 206.092 114.759 205.875 114.493 205.716C114.228 205.557 113.924 205.477 113.583 205.474C113.338 205.471 113.087 205.509 112.829 205.587C112.571 205.663 112.359 205.76 112.192 205.88L111.286 205.771L111.771 201.833H115.927V202.693H112.583L112.302 205.052H112.349C112.513 204.922 112.718 204.814 112.966 204.728C113.213 204.642 113.471 204.599 113.739 204.599C114.229 204.599 114.665 204.716 115.048 204.951C115.433 205.182 115.735 205.5 115.954 205.904C116.175 206.307 116.286 206.768 116.286 207.286C116.286 207.797 116.172 208.253 115.942 208.654C115.716 209.052 115.403 209.367 115.005 209.599C114.606 209.828 114.153 209.943 113.646 209.943Z" fill="#B3B3B3"/>
<path d="M138.566 209.833V209.13L141.207 206.24C141.516 205.901 141.772 205.607 141.972 205.357C142.173 205.104 142.321 204.867 142.417 204.646C142.516 204.422 142.566 204.188 142.566 203.943C142.566 203.661 142.498 203.418 142.363 203.212C142.23 203.007 142.048 202.848 141.816 202.736C141.584 202.624 141.324 202.568 141.035 202.568C140.727 202.568 140.459 202.632 140.23 202.759C140.003 202.884 139.828 203.06 139.703 203.286C139.58 203.513 139.519 203.779 139.519 204.083H138.597C138.597 203.615 138.705 203.203 138.921 202.849C139.138 202.495 139.432 202.219 139.804 202.021C140.179 201.823 140.6 201.724 141.066 201.724C141.535 201.724 141.95 201.823 142.312 202.021C142.674 202.219 142.958 202.486 143.164 202.822C143.369 203.158 143.472 203.531 143.472 203.943C143.472 204.237 143.419 204.525 143.312 204.806C143.208 205.085 143.026 205.396 142.765 205.74C142.507 206.081 142.149 206.497 141.691 206.99L139.894 208.911V208.974H143.613V209.833H138.566ZM147.882 209.943C147.554 209.938 147.226 209.875 146.898 209.755C146.57 209.635 146.27 209.434 146 209.15C145.729 208.863 145.511 208.477 145.347 207.99C145.183 207.5 145.101 206.885 145.101 206.146C145.101 205.438 145.167 204.81 145.3 204.263C145.433 203.714 145.626 203.251 145.878 202.876C146.131 202.499 146.436 202.212 146.792 202.017C147.152 201.822 147.557 201.724 148.007 201.724C148.455 201.724 148.854 201.814 149.203 201.994C149.554 202.171 149.841 202.418 150.062 202.736C150.283 203.053 150.427 203.419 150.492 203.833H149.539C149.45 203.474 149.278 203.176 149.023 202.939C148.768 202.702 148.429 202.583 148.007 202.583C147.388 202.583 146.899 202.853 146.542 203.392C146.188 203.931 146.01 204.688 146.007 205.661H146.07C146.216 205.44 146.389 205.251 146.589 205.095C146.792 204.936 147.016 204.814 147.261 204.728C147.506 204.642 147.765 204.599 148.039 204.599C148.497 204.599 148.916 204.714 149.296 204.943C149.677 205.169 149.981 205.483 150.21 205.884C150.44 206.283 150.554 206.74 150.554 207.255C150.554 207.75 150.444 208.203 150.222 208.615C150.001 209.023 149.69 209.349 149.289 209.591C148.89 209.831 148.421 209.948 147.882 209.943ZM147.882 209.083C148.21 209.083 148.505 209.001 148.765 208.837C149.028 208.673 149.235 208.453 149.386 208.177C149.54 207.901 149.617 207.594 149.617 207.255C149.617 206.925 149.542 206.624 149.394 206.353C149.248 206.079 149.046 205.862 148.789 205.701C148.533 205.539 148.242 205.458 147.914 205.458C147.666 205.458 147.436 205.508 147.222 205.607C147.009 205.703 146.821 205.836 146.66 206.005C146.501 206.175 146.376 206.369 146.285 206.587C146.194 206.803 146.148 207.031 146.148 207.271C146.148 207.589 146.222 207.885 146.371 208.161C146.522 208.438 146.727 208.66 146.988 208.829C147.251 208.999 147.549 209.083 147.882 209.083Z" fill="#B3B3B3"/>
<path d="M173.022 209.833V209.13L175.663 206.24C175.973 205.901 176.228 205.607 176.429 205.357C176.629 205.104 176.778 204.867 176.874 204.646C176.973 204.422 177.022 204.188 177.022 203.943C177.022 203.661 176.955 203.418 176.819 203.212C176.687 203.007 176.504 202.848 176.272 202.736C176.041 202.624 175.78 202.568 175.491 202.568C175.184 202.568 174.916 202.632 174.687 202.759C174.46 202.884 174.284 203.06 174.159 203.286C174.037 203.513 173.976 203.779 173.976 204.083H173.054C173.054 203.615 173.162 203.203 173.378 202.849C173.594 202.495 173.888 202.219 174.261 202.021C174.636 201.823 175.056 201.724 175.522 201.724C175.991 201.724 176.407 201.823 176.769 202.021C177.131 202.219 177.414 202.486 177.62 202.822C177.826 203.158 177.929 203.531 177.929 203.943C177.929 204.237 177.875 204.525 177.769 204.806C177.664 205.085 177.482 205.396 177.222 205.74C176.964 206.081 176.606 206.497 176.147 206.99L174.351 208.911V208.974H178.069V209.833H173.022ZM179.933 209.833L183.511 202.755V202.693H179.386V201.833H184.511V202.74L180.948 209.833H179.933Z" fill="#B3B3B3"/>
<path d="M206.942 209.833V209.13L209.583 206.24C209.893 205.901 210.148 205.607 210.349 205.357C210.549 205.104 210.698 204.867 210.794 204.646C210.893 204.422 210.942 204.188 210.942 203.943C210.942 203.661 210.875 203.418 210.739 203.212C210.606 203.007 210.424 202.848 210.192 202.736C209.961 202.624 209.7 202.568 209.411 202.568C209.104 202.568 208.836 202.632 208.606 202.759C208.38 202.884 208.204 203.06 208.079 203.286C207.957 203.513 207.896 203.779 207.896 204.083H206.974C206.974 203.615 207.082 203.203 207.298 202.849C207.514 202.495 207.808 202.219 208.181 202.021C208.556 201.823 208.976 201.724 209.442 201.724C209.911 201.724 210.326 201.823 210.688 202.021C211.05 202.219 211.334 202.486 211.54 202.822C211.746 203.158 211.849 203.531 211.849 203.943C211.849 204.237 211.795 204.525 211.688 204.806C211.584 205.085 211.402 205.396 211.142 205.74C210.884 206.081 210.526 206.497 210.067 206.99L208.271 208.911V208.974H211.989V209.833H206.942ZM216.165 209.943C215.629 209.943 215.155 209.848 214.743 209.658C214.334 209.465 214.015 209.201 213.786 208.865C213.557 208.526 213.444 208.141 213.446 207.708C213.444 207.37 213.51 207.057 213.646 206.771C213.781 206.482 213.966 206.241 214.2 206.048C214.437 205.853 214.701 205.729 214.993 205.677V205.63C214.61 205.531 214.306 205.316 214.079 204.986C213.853 204.652 213.741 204.273 213.743 203.849C213.741 203.443 213.843 203.079 214.052 202.759C214.26 202.439 214.547 202.186 214.911 202.001C215.278 201.816 215.696 201.724 216.165 201.724C216.629 201.724 217.043 201.816 217.407 202.001C217.772 202.186 218.058 202.439 218.267 202.759C218.478 203.079 218.584 203.443 218.587 203.849C218.584 204.273 218.468 204.652 218.239 204.986C218.013 205.316 217.712 205.531 217.337 205.63V205.677C217.626 205.729 217.886 205.853 218.118 206.048C218.35 206.241 218.535 206.482 218.673 206.771C218.811 207.057 218.881 207.37 218.884 207.708C218.881 208.141 218.764 208.526 218.532 208.865C218.303 209.201 217.984 209.465 217.575 209.658C217.169 209.848 216.699 209.943 216.165 209.943ZM216.165 209.083C216.527 209.083 216.84 209.025 217.103 208.908C217.366 208.79 217.569 208.625 217.712 208.411C217.855 208.198 217.928 207.948 217.931 207.661C217.928 207.359 217.85 207.092 217.696 206.861C217.543 206.629 217.333 206.447 217.067 206.314C216.804 206.181 216.504 206.115 216.165 206.115C215.824 206.115 215.519 206.181 215.251 206.314C214.985 206.447 214.776 206.629 214.622 206.861C214.471 207.092 214.397 207.359 214.399 207.661C214.397 207.948 214.466 208.198 214.606 208.411C214.75 208.625 214.954 208.79 215.22 208.908C215.485 209.025 215.8 209.083 216.165 209.083ZM216.165 205.286C216.451 205.286 216.705 205.229 216.927 205.115C217.151 205 217.326 204.84 217.454 204.634C217.582 204.428 217.647 204.188 217.649 203.911C217.647 203.641 217.583 203.405 217.458 203.204C217.333 203.001 217.16 202.845 216.938 202.736C216.717 202.624 216.459 202.568 216.165 202.568C215.866 202.568 215.604 202.624 215.38 202.736C215.156 202.845 214.983 203.001 214.86 203.204C214.738 203.405 214.678 203.641 214.681 203.911C214.678 204.188 214.739 204.428 214.864 204.634C214.992 204.84 215.168 205 215.392 205.115C215.616 205.229 215.873 205.286 216.165 205.286Z" fill="#17A1FA"/>
<path d="M241.066 209.833V209.13L243.707 206.24C244.016 205.901 244.272 205.607 244.472 205.357C244.673 205.104 244.821 204.867 244.917 204.646C245.016 204.422 245.066 204.188 245.066 203.943C245.066 203.661 244.998 203.418 244.863 203.212C244.73 203.007 244.548 202.848 244.316 202.736C244.084 202.624 243.824 202.568 243.535 202.568C243.227 202.568 242.959 202.632 242.73 202.759C242.503 202.884 242.328 203.06 242.203 203.286C242.08 203.513 242.019 203.779 242.019 204.083H241.097C241.097 203.615 241.205 203.203 241.421 202.849C241.638 202.495 241.932 202.219 242.304 202.021C242.679 201.823 243.1 201.724 243.566 201.724C244.035 201.724 244.45 201.823 244.812 202.021C245.174 202.219 245.458 202.486 245.664 202.822C245.869 203.158 245.972 203.531 245.972 203.943C245.972 204.237 245.919 204.525 245.812 204.806C245.708 205.085 245.526 205.396 245.265 205.74C245.007 206.081 244.649 206.497 244.191 206.99L242.394 208.911V208.974H246.113V209.833H241.066ZM250.273 201.724C250.601 201.727 250.929 201.789 251.257 201.911C251.585 202.034 251.885 202.237 252.156 202.521C252.427 202.802 252.644 203.186 252.808 203.673C252.972 204.16 253.054 204.771 253.054 205.505C253.054 206.216 252.986 206.848 252.851 207.4C252.718 207.949 252.526 208.413 252.273 208.79C252.023 209.168 251.718 209.454 251.359 209.65C251.002 209.845 250.598 209.943 250.148 209.943C249.7 209.943 249.3 209.854 248.949 209.677C248.6 209.497 248.313 209.249 248.089 208.931C247.868 208.611 247.726 208.24 247.664 207.818H248.617C248.703 208.185 248.873 208.488 249.128 208.728C249.386 208.965 249.726 209.083 250.148 209.083C250.765 209.083 251.252 208.814 251.609 208.275C251.968 207.736 252.148 206.974 252.148 205.99H252.085C251.94 206.208 251.766 206.397 251.566 206.556C251.365 206.715 251.143 206.837 250.898 206.923C250.653 207.009 250.393 207.052 250.117 207.052C249.658 207.052 249.238 206.939 248.855 206.712C248.475 206.483 248.17 206.169 247.941 205.771C247.714 205.37 247.601 204.911 247.601 204.396C247.601 203.906 247.71 203.458 247.929 203.052C248.151 202.643 248.46 202.318 248.859 202.076C249.26 201.833 249.731 201.716 250.273 201.724ZM250.273 202.583C249.945 202.583 249.649 202.665 249.386 202.829C249.126 202.991 248.919 203.21 248.765 203.486C248.614 203.759 248.539 204.063 248.539 204.396C248.539 204.729 248.611 205.033 248.757 205.306C248.906 205.577 249.108 205.793 249.363 205.954C249.621 206.113 249.914 206.193 250.242 206.193C250.489 206.193 250.72 206.145 250.933 206.048C251.147 205.949 251.333 205.815 251.492 205.646C251.653 205.474 251.779 205.28 251.871 205.064C251.962 204.845 252.007 204.617 252.007 204.38C252.007 204.068 251.932 203.775 251.781 203.501C251.632 203.228 251.427 203.007 251.164 202.837C250.903 202.668 250.606 202.583 250.273 202.583Z" fill="#17A1FA"/>
</g>
<g clip-path="url(#clip7_314_77)">
<path d="M38.5918 241.609C38.0762 241.609 37.6165 241.521 37.2129 241.344C36.8118 241.167 36.4928 240.921 36.2559 240.605C36.0215 240.288 35.8939 239.919 35.873 239.5H36.8574C36.8783 239.758 36.9668 239.98 37.123 240.168C37.2793 240.353 37.4837 240.496 37.7363 240.598C37.9889 240.699 38.2689 240.75 38.5762 240.75C38.9199 240.75 39.2246 240.69 39.4902 240.57C39.7559 240.451 39.9642 240.284 40.1152 240.07C40.2663 239.857 40.3418 239.609 40.3418 239.328C40.3418 239.034 40.2689 238.775 40.123 238.551C39.9772 238.324 39.7637 238.147 39.4824 238.02C39.2012 237.892 38.8574 237.828 38.4512 237.828H37.8105V236.969H38.4512C38.7689 236.969 39.0475 236.911 39.2871 236.797C39.5293 236.682 39.7181 236.521 39.8535 236.312C39.9915 236.104 40.0605 235.859 40.0605 235.578C40.0605 235.307 40.0007 235.072 39.8809 234.871C39.7611 234.671 39.5918 234.514 39.373 234.402C39.1569 234.29 38.9017 234.234 38.6074 234.234C38.3314 234.234 38.071 234.285 37.8262 234.387C37.584 234.486 37.3861 234.63 37.2324 234.82C37.0788 235.008 36.9954 235.234 36.9824 235.5H36.0449C36.0605 235.081 36.1868 234.714 36.4238 234.398C36.6608 234.081 36.9707 233.833 37.3535 233.656C37.7389 233.479 38.1621 233.391 38.623 233.391C39.1178 233.391 39.5423 233.491 39.8965 233.691C40.2507 233.889 40.5228 234.151 40.7129 234.477C40.903 234.802 40.998 235.154 40.998 235.531C40.998 235.982 40.8796 236.366 40.6426 236.684C40.4082 237.001 40.0892 237.221 39.6855 237.344V237.406C40.1908 237.49 40.5853 237.704 40.8691 238.051C41.153 238.395 41.2949 238.82 41.2949 239.328C41.2949 239.763 41.1764 240.154 40.9395 240.5C40.7051 240.844 40.3848 241.115 39.9785 241.312C39.5723 241.51 39.11 241.609 38.5918 241.609ZM45.502 241.609C44.9134 241.609 44.4121 241.449 43.998 241.129C43.584 240.806 43.2676 240.339 43.0488 239.727C42.8301 239.112 42.7207 238.37 42.7207 237.5C42.7207 236.635 42.8301 235.897 43.0488 235.285C43.2702 234.671 43.5879 234.202 44.002 233.879C44.4186 233.553 44.9186 233.391 45.502 233.391C46.0853 233.391 46.584 233.553 46.998 233.879C47.4147 234.202 47.7324 234.671 47.9512 235.285C48.1725 235.897 48.2832 236.635 48.2832 237.5C48.2832 238.37 48.1738 239.112 47.9551 239.727C47.7363 240.339 47.4199 240.806 47.0059 241.129C46.5918 241.449 46.0905 241.609 45.502 241.609ZM45.502 240.75C46.0853 240.75 46.5384 240.469 46.8613 239.906C47.1842 239.344 47.3457 238.542 47.3457 237.5C47.3457 236.807 47.2715 236.217 47.123 235.73C46.9772 235.243 46.7663 234.872 46.4902 234.617C46.2168 234.362 45.8874 234.234 45.502 234.234C44.9238 234.234 44.472 234.52 44.1465 235.09C43.821 235.658 43.6582 236.461 43.6582 237.5C43.6582 238.193 43.7311 238.781 43.877 239.266C44.0228 239.75 44.2324 240.118 44.5059 240.371C44.7819 240.624 45.1139 240.75 45.502 240.75Z" fill="#B3B3B3"/>
<path d="M73.6392 241.609C73.1235 241.609 72.6639 241.521 72.2603 241.344C71.8592 241.167 71.5402 240.921 71.3032 240.605C71.0688 240.288 70.9412 239.919 70.9204 239.5H71.9048C71.9256 239.758 72.0142 239.98 72.1704 240.168C72.3267 240.353 72.5311 240.496 72.7837 240.598C73.0363 240.699 73.3162 240.75 73.6235 240.75C73.9673 240.75 74.272 240.69 74.5376 240.57C74.8032 240.451 75.0116 240.284 75.1626 240.07C75.3136 239.857 75.3892 239.609 75.3892 239.328C75.3892 239.034 75.3162 238.775 75.1704 238.551C75.0246 238.324 74.811 238.147 74.5298 238.02C74.2485 237.892 73.9048 237.828 73.4985 237.828H72.8579V236.969H73.4985C73.8162 236.969 74.0949 236.911 74.3345 236.797C74.5767 236.682 74.7655 236.521 74.9009 236.312C75.0389 236.104 75.1079 235.859 75.1079 235.578C75.1079 235.307 75.048 235.072 74.9282 234.871C74.8084 234.671 74.6392 234.514 74.4204 234.402C74.2043 234.29 73.9491 234.234 73.6548 234.234C73.3787 234.234 73.1183 234.285 72.8735 234.387C72.6313 234.486 72.4334 234.63 72.2798 234.82C72.1261 235.008 72.0428 235.234 72.0298 235.5H71.0923C71.1079 235.081 71.2342 234.714 71.4712 234.398C71.7082 234.081 72.0181 233.833 72.4009 233.656C72.7863 233.479 73.2095 233.391 73.6704 233.391C74.1652 233.391 74.5897 233.491 74.9438 233.691C75.298 233.889 75.5701 234.151 75.7603 234.477C75.9504 234.802 76.0454 235.154 76.0454 235.531C76.0454 235.982 75.9269 236.366 75.6899 236.684C75.4556 237.001 75.1366 237.221 74.7329 237.344V237.406C75.2381 237.49 75.6326 237.704 75.9165 238.051C76.2004 238.395 76.3423 238.82 76.3423 239.328C76.3423 239.763 76.2238 240.154 75.9868 240.5C75.7524 240.844 75.4321 241.115 75.0259 241.312C74.6196 241.51 74.1574 241.609 73.6392 241.609ZM80.7524 233.5V241.5H79.7837V234.516H79.7368L77.7837 235.812V234.828L79.7837 233.5H80.7524Z" fill="#B3B3B3"/>
<path d="M111.417 233.5V241.5H110.449V234.516H110.402L108.449 235.812V234.828L110.449 233.5H111.417Z" fill="#616161"/>
<path d="M141.998 241.5V240.797L144.639 237.906C144.949 237.568 145.204 237.273 145.404 237.023C145.605 236.771 145.753 236.534 145.85 236.312C145.949 236.089 145.998 235.854 145.998 235.609C145.998 235.328 145.93 235.085 145.795 234.879C145.662 234.673 145.48 234.514 145.248 234.402C145.016 234.29 144.756 234.234 144.467 234.234C144.16 234.234 143.891 234.298 143.662 234.426C143.436 234.551 143.26 234.727 143.135 234.953C143.012 235.18 142.951 235.445 142.951 235.75H142.029C142.029 235.281 142.137 234.87 142.354 234.516C142.57 234.161 142.864 233.885 143.236 233.687C143.611 233.49 144.032 233.391 144.498 233.391C144.967 233.391 145.382 233.49 145.744 233.687C146.106 233.885 146.39 234.152 146.596 234.488C146.801 234.824 146.904 235.198 146.904 235.609C146.904 235.904 146.851 236.191 146.744 236.473C146.64 236.751 146.458 237.062 146.197 237.406C145.939 237.747 145.581 238.164 145.123 238.656L143.326 240.578V240.641H147.045V241.5H141.998Z" fill="#616161"/>
<path d="M178.696 241.609C178.18 241.609 177.721 241.521 177.317 241.344C176.916 241.167 176.597 240.921 176.36 240.605C176.125 240.288 175.998 239.919 175.977 239.5H176.961C176.982 239.758 177.071 239.98 177.227 240.168C177.383 240.353 177.588 240.496 177.84 240.598C178.093 240.699 178.373 240.75 178.68 240.75C179.024 240.75 179.329 240.69 179.594 240.57C179.86 240.451 180.068 240.284 180.219 240.07C180.37 239.857 180.446 239.609 180.446 239.328C180.446 239.034 180.373 238.775 180.227 238.551C180.081 238.324 179.868 238.147 179.586 238.02C179.305 237.892 178.961 237.828 178.555 237.828H177.915V236.969H178.555C178.873 236.969 179.152 236.911 179.391 236.797C179.633 236.682 179.822 236.521 179.958 236.312C180.096 236.104 180.165 235.859 180.165 235.578C180.165 235.307 180.105 235.072 179.985 234.871C179.865 234.671 179.696 234.514 179.477 234.402C179.261 234.29 179.006 234.234 178.711 234.234C178.435 234.234 178.175 234.285 177.93 234.387C177.688 234.486 177.49 234.63 177.336 234.82C177.183 235.008 177.099 235.234 177.086 235.5H176.149C176.165 235.081 176.291 234.714 176.528 234.398C176.765 234.081 177.075 233.833 177.458 233.656C177.843 233.479 178.266 233.391 178.727 233.391C179.222 233.391 179.646 233.491 180 233.691C180.355 233.889 180.627 234.151 180.817 234.477C181.007 234.802 181.102 235.154 181.102 235.531C181.102 235.982 180.984 236.366 180.747 236.684C180.512 237.001 180.193 237.221 179.79 237.344V237.406C180.295 237.49 180.689 237.704 180.973 238.051C181.257 238.395 181.399 238.82 181.399 239.328C181.399 239.763 181.28 240.154 181.043 240.5C180.809 240.844 180.489 241.115 180.083 241.312C179.676 241.51 179.214 241.609 178.696 241.609Z" fill="#616161"/>
<path d="M209.945 239.859V239.062L213.461 233.5H214.039V234.734H213.648L210.992 238.937V239H215.727V239.859H209.945ZM213.711 241.5V239.617V239.246V233.5H214.633V241.5H213.711Z" fill="#1270B0"/>
<path d="M246.982 241.609C246.524 241.609 246.111 241.518 245.744 241.336C245.376 241.154 245.082 240.904 244.861 240.586C244.639 240.268 244.518 239.906 244.498 239.5H245.435C245.472 239.862 245.636 240.161 245.927 240.398C246.222 240.633 246.573 240.75 246.982 240.75C247.31 240.75 247.602 240.673 247.857 240.52C248.115 240.366 248.317 240.155 248.462 239.887C248.611 239.616 248.685 239.31 248.685 238.969C248.685 238.62 248.608 238.309 248.455 238.035C248.304 237.759 248.095 237.542 247.83 237.383C247.564 237.224 247.261 237.143 246.919 237.141C246.675 237.138 246.423 237.176 246.166 237.254C245.908 237.329 245.695 237.427 245.529 237.547L244.623 237.437L245.107 233.5H249.263V234.359H245.919L245.638 236.719H245.685C245.849 236.589 246.055 236.48 246.302 236.395C246.55 236.309 246.807 236.266 247.076 236.266C247.565 236.266 248.001 236.383 248.384 236.617C248.77 236.849 249.072 237.167 249.291 237.57C249.512 237.974 249.623 238.435 249.623 238.953C249.623 239.464 249.508 239.919 249.279 240.32C249.052 240.719 248.74 241.034 248.341 241.266C247.943 241.495 247.49 241.609 246.982 241.609Z" fill="#1270B0"/>
</g>
</g>
<defs>
<clipPath id="clip0_314_77">
<rect width="229" height="214" fill="white" transform="translate(30 35)"/>
</clipPath>
<clipPath id="clip1_314_77">
<rect width="229" height="24" fill="white" transform="translate(30 35)"/>
</clipPath>
<clipPath id="clip2_314_77">
<rect width="229" height="24" fill="white" transform="translate(30 66.6666)"/>
</clipPath>
<clipPath id="clip3_314_77">
<rect width="229" height="24" fill="white" transform="translate(30 98.3334)"/>
</clipPath>
<clipPath id="clip4_314_77">
<rect width="229" height="24" fill="white" transform="translate(30 130)"/>
</clipPath>
<clipPath id="clip5_314_77">
<rect width="229" height="24" fill="white" transform="translate(30 161.667)"/>
</clipPath>
<clipPath id="clip6_314_77">
<rect width="229" height="24" fill="white" transform="translate(30 193.333)"/>
</clipPath>
<clipPath id="clip7_314_77">
<rect width="229" height="24" fill="white" transform="translate(30 225)"/>
</clipPath>
</defs>
</svg>
